<svg width="62" height="14" viewBox="0 0 62 14" fill="none" xmlns="http://www.w3.org/2000/svg">
<path d="M30.75 0C29.3985 0 28.0773 0.400769 26.9536 1.15162C25.8299 1.90248 24.954 2.9697 24.4368 4.21833C23.9196 5.46696 23.7843 6.84091 24.048 8.16645C24.3116 9.49199 24.9625 10.7096 25.9181 11.6652C26.8738 12.6209 28.0914 13.2717 29.4169 13.5354C30.7424 13.799 32.1164 13.6637 33.365 13.1465C34.6136 12.6293 35.6809 11.7535 36.4317 10.6297C37.1826 9.50599 37.5833 8.18484 37.5833 6.83333C37.5833 5.02102 36.8634 3.28294 35.5819 2.00144C34.3004 0.71994 32.5623 0 30.75 0ZM6.83334 0C5.48183 0 4.16068 0.400769 3.03694 1.15162C1.9132 1.90248 1.03736 2.9697 0.52016 4.21833C0.00296075 5.46696 -0.132362 6.84091 0.131304 8.16645C0.394969 9.49199 1.04578 10.7096 2.00144 11.6652C2.9571 12.6209 4.17468 13.2717 5.50022 13.5354C6.82576 13.799 8.19971 13.6637 9.44834 13.1465C10.697 12.6293 11.7642 11.7535 12.515 10.6297C13.2659 9.50599 13.6667 8.18484 13.6667 6.83333C13.6667 5.02102 12.9467 3.28294 11.6652 2.00144C10.3837 0.71994 8.64565 0 6.83334 0ZM54.6667 0C53.3152 0 51.994 0.400769 50.8703 1.15162C49.7465 1.90248 48.8707 2.9697 48.3535 4.21833C47.8363 5.46696 47.701 6.84091 47.9646 8.16645C48.2283 9.49199 48.8791 10.7096 49.8348 11.6652C50.7904 12.6209 52.008 13.2717 53.3336 13.5354C54.6591 13.799 56.033 13.6637 57.2817 13.1465C58.5303 12.6293 59.5975 11.7535 60.3484 10.6297C61.0992 9.50599 61.5 8.18484 61.5 6.83333C61.5 5.02102 60.7801 3.28294 59.4986 2.00144C58.2171 0.71994 56.479 0 54.6667 0Z" fill="#A6D6F6"/>
</svg>
