<svg width="74" height="58" viewBox="0 0 74 58" fill="none" xmlns="http://www.w3.org/2000/svg">
<path d="M15.2291 32.4762H8.98828V36.6321H15.2291V32.4762Z" fill="#01BDE1" stroke="#BDC6CB" stroke-linecap="round" stroke-linejoin="round"/>
<path d="M18.0552 32.4762H11.8145V36.6321H18.0552V32.4762Z" fill="#BDC6CB" stroke="#BDC6CB" stroke-linecap="round" stroke-linejoin="round"/>
<path d="M33.9234 38.0444H9.31152V56.7231H33.9234V38.0444Z" fill="#BDC6CB" stroke="#BDC6CB" stroke-linecap="round" stroke-linejoin="round"/>
<path d="M33.9264 36.0038H7.74121V39.382H33.9264V36.0038Z" fill="#BDC6CB"/>
<path d="M27.0631 29.0212H19.4619V34.3426H27.0631V29.0212Z" fill="#BDC6CB"/>
<path d="M23.264 26.0122L18.6602 29.127H27.8678L23.264 26.0122Z" fill="#01BDE1" stroke="#BDC6CB" stroke-linecap="round" stroke-linejoin="round"/>
<path d="M27.8684 29.127L23.2646 26.0122L20.7539 29.127H27.8684Z" fill="#BDC6CB"/>
<path d="M20.2426 33.5069H19.709V36.7151H20.2426V33.5069Z" fill="#BDC6CB"/>
<path d="M26.6567 33.5069H26.123V36.7151H26.6567V33.5069Z" fill="#BDC6CB"/>
<path d="M23.146 33.5069H22.6123V36.7151H23.146V33.5069Z" fill="#BDC6CB"/>
<path d="M24.1382 33.5069H23.6045V36.7151H24.1382V33.5069Z" fill="#BDC6CB"/>
<path d="M11.5349 40.338H10.2354V44.2347H11.5349V40.338Z" fill="white" stroke="#BDC6CB" stroke-linecap="round" stroke-linejoin="round"/>
<path d="M11.5349 46.5076H10.2354V50.4042H11.5349V46.5076Z" fill="white" stroke="#BDC6CB" stroke-linecap="round" stroke-linejoin="round"/>
<path d="M71.8718 3.72708H29.9395V56.7231H71.8718V3.72708Z" fill="#BDC6CB" stroke="#BDC6CB" stroke-linecap="round" stroke-linejoin="round"/>
<path d="M71.8712 3.72708H47.7266V56.7231H71.8712V3.72708Z" fill="white" stroke="#BDC6CB" stroke-linecap="round" stroke-linejoin="round"/>
<path d="M69.0673 3.72708H50.5303V56.7231H69.0673V3.72708Z" fill="#01BDE1" stroke="#BDC6CB" stroke-linecap="round" stroke-linejoin="round"/>
<path d="M71.8712 3.72708H47.7266V7.35624H71.8712V3.72708Z" fill="#BDC6CB" stroke="#BDC6CB" stroke-linecap="round" stroke-linejoin="round"/>
<path d="M65.664 50.2093H53.9346V56.7231H65.664V50.2093Z" fill="white"/>
<g style="mix-blend-mode:multiply" opacity="0.6">
<path d="M59.0722 52.3287L54.0508 55.7567V56.6878H54.131L59.8077 52.8119V52.3287H59.0722Z" fill="#01BDE1"/>
<path d="M57.1698 56.6878L59.8076 54.8857V53.8986L55.7236 56.6878H57.1698Z" fill="#01BDE1"/>
</g>
<path d="M65.664 50.2093H53.9346V56.7231H65.664V50.2093Z" stroke="#BDC6CB" stroke-linecap="round" stroke-linejoin="round"/>
<path d="M65.6635 50.2093H59.7988V56.7231H65.6635V50.2093Z" fill="white"/>
<g style="mix-blend-mode:multiply" opacity="0.6">
<path d="M64.829 52.3287L59.8076 55.7567V56.6878H59.8878L65.5645 52.8119V52.3287H64.829Z" fill="#01BDE1"/>
<path d="M62.9266 56.6878L65.5645 54.8857V53.8986L61.4805 56.6878H62.9266Z" fill="#01BDE1"/>
</g>
<path d="M65.6635 50.2093H59.7988V56.7231H65.6635V50.2093Z" stroke="#BDC6CB" stroke-linecap="round" stroke-linejoin="round"/>
<path d="M38.0493 9.67267H32.7266V13.2977H38.0493V9.67267Z" fill="white"/>
<g style="mix-blend-mode:multiply" opacity="0.6">
<path d="M38.0493 9.9153V9.67267H37.2696L32.7266 12.4391V13.1567" fill="#01BDE1"/>
<path d="M38.0492 11.423V10.7054L33.791 13.2977H34.9689" fill="#01BDE1"/>
</g>
<path d="M38.0493 9.67267H32.7266V13.2977H38.0493V9.67267Z" stroke="#BDC6CB" stroke-linecap="round" stroke-linejoin="round"/>
<path d="M38.0493 8.62747H32.7266V10.2036H38.0493V8.62747Z" fill="white" stroke="#BDC6CB" stroke-linecap="round" stroke-linejoin="round"/>
<path d="M45.6587 9.67267H40.3359V13.2977H45.6587V9.67267Z" fill="white"/>
<g style="mix-blend-mode:multiply" opacity="0.6">
<path d="M40.3359 12.4391V13.1567L45.6587 9.9153V9.67267H44.8789" fill="#01BDE1"/>
<path d="M45.6586 11.423V10.7054L41.4004 13.2977H42.5783" fill="#01BDE1"/>
</g>
<path d="M45.6587 9.67267H40.3359V13.2977H45.6587V9.67267Z" stroke="#BDC6CB" stroke-linecap="round" stroke-linejoin="round"/>
<path d="M45.6587 8.62747H40.3359V10.2036H45.6587V8.62747Z" fill="white" stroke="#BDC6CB" stroke-linecap="round" stroke-linejoin="round"/>
<path d="M38.0493 16.6324H32.7266V20.2574H38.0493V16.6324Z" fill="white"/>
<g style="mix-blend-mode:multiply" opacity="0.6">
<path d="M32.7266 19.4009V20.1163L38.0493 16.875V16.6324H37.2696" fill="#01BDE1"/>
<path d="M38.0492 18.3827V17.6651L33.791 20.2574H34.9689" fill="#01BDE1"/>
</g>
<path d="M38.0493 16.6324H32.7266V20.2574H38.0493V16.6324Z" stroke="#BDC6CB" stroke-linecap="round" stroke-linejoin="round"/>
<path d="M38.0493 15.5872H32.7266V17.1632H38.0493V15.5872Z" fill="white" stroke="#BDC6CB" stroke-linecap="round" stroke-linejoin="round"/>
<path d="M45.6587 16.6324H40.3359V20.2574H45.6587V16.6324Z" fill="white"/>
<g style="mix-blend-mode:multiply" opacity="0.6">
<path d="M45.6587 16.875V16.6324H44.8789L40.3359 19.4009V20.1163" fill="#01BDE1"/>
<path d="M41.4004 20.2574H42.5783L45.6586 18.3827V17.6651" fill="#01BDE1"/>
</g>
<path d="M45.6587 16.6324H40.3359V20.2574H45.6587V16.6324Z" stroke="#BDC6CB" stroke-linecap="round" stroke-linejoin="round"/>
<path d="M45.6587 15.5872H40.3359V17.1632H45.6587V15.5872Z" fill="white" stroke="#BDC6CB" stroke-linecap="round" stroke-linejoin="round"/>
<path d="M38.0493 23.5921H32.7266V27.2171H38.0493V23.5921Z" fill="white"/>
<g style="mix-blend-mode:multiply" opacity="0.6">
<path d="M32.7266 26.3606V27.0781L38.0493 23.8347V23.5921H37.2696" fill="#01BDE1"/>
<path d="M38.0492 25.3423V24.6248L33.791 27.217H34.9689" fill="#01BDE1"/>
</g>
<path d="M38.0493 23.5921H32.7266V27.2171H38.0493V23.5921Z" stroke="#BDC6CB" stroke-linecap="round" stroke-linejoin="round"/>
<path d="M38.0493 22.549H32.7266V24.125H38.0493V22.549Z" fill="white" stroke="#BDC6CB" stroke-linecap="round" stroke-linejoin="round"/>
<path d="M45.6587 23.5921H40.3359V27.2171H45.6587V23.5921Z" fill="white"/>
<g style="mix-blend-mode:multiply" opacity="0.6">
<path d="M40.3359 26.3606V27.0781L45.6587 23.8347V23.5921H44.8789" fill="#01BDE1"/>
<path d="M41.4004 27.217H42.5783L45.6586 25.3423V24.6248" fill="#01BDE1"/>
</g>
<path d="M45.6587 23.5921H40.3359V27.2171H45.6587V23.5921Z" stroke="#BDC6CB" stroke-linecap="round" stroke-linejoin="round"/>
<path d="M45.6587 22.549H40.3359V24.125H45.6587V22.549Z" fill="white" stroke="#BDC6CB" stroke-linecap="round" stroke-linejoin="round"/>
<path d="M38.0493 30.5517H32.7266V34.1767H38.0493V30.5517Z" fill="white"/>
<g style="mix-blend-mode:multiply" opacity="0.6">
<path d="M37.2696 30.5517L32.7266 33.3202V34.0378L38.0493 30.7943V30.5517H37.2696Z" fill="#01BDE1"/>
<path d="M34.9689 34.1788L38.0492 32.302V31.5845L33.791 34.1788H34.9689Z" fill="#01BDE1"/>
</g>
<path d="M38.0493 30.5517H32.7266V34.1767H38.0493V30.5517Z" stroke="#BDC6CB" stroke-linecap="round" stroke-linejoin="round"/>
<path d="M38.0493 29.5086H32.7266V31.0847H38.0493V29.5086Z" fill="white" stroke="#BDC6CB" stroke-linecap="round" stroke-linejoin="round"/>
<path d="M45.6587 30.5517H40.3359V34.1767H45.6587V30.5517Z" fill="white"/>
<g style="mix-blend-mode:multiply" opacity="0.6">
<path d="M40.3359 33.3202V34.0378L45.6587 30.7943V30.5517H44.8789" fill="#01BDE1"/>
<path d="M41.4004 34.1788H42.5783L45.6586 32.302V31.5845" fill="#01BDE1"/>
</g>
<path d="M45.6587 30.5517H40.3359V34.1767H45.6587V30.5517Z" stroke="#BDC6CB" stroke-linecap="round" stroke-linejoin="round"/>
<path d="M45.6587 29.5086H40.3359V31.0847H45.6587V29.5086Z" fill="white" stroke="#BDC6CB" stroke-linecap="round" stroke-linejoin="round"/>
<path d="M38.0493 37.5114H32.7266V41.1364H38.0493V37.5114Z" fill="white"/>
<g style="mix-blend-mode:multiply" opacity="0.6">
<path d="M37.2696 37.5114L32.7266 40.2799V40.9974L38.0493 37.754V37.5114H37.2696Z" fill="#01BDE1"/>
<path d="M34.9689 41.1385L38.0492 39.2617V38.5441L33.791 41.1385H34.9689Z" fill="#01BDE1"/>
</g>
<path d="M38.0493 37.5114H32.7266V41.1364H38.0493V37.5114Z" stroke="#BDC6CB" stroke-linecap="round" stroke-linejoin="round"/>
<path d="M38.0493 36.4683H32.7266V38.0444H38.0493V36.4683Z" fill="white" stroke="#BDC6CB" stroke-linecap="round" stroke-linejoin="round"/>
<path d="M45.6587 37.5114H40.3359V41.1364H45.6587V37.5114Z" fill="white"/>
<g style="mix-blend-mode:multiply" opacity="0.6">
<path d="M44.8789 37.5114L40.3359 40.2799V40.9974L45.6587 37.754V37.5114H44.8789Z" fill="#01BDE1"/>
<path d="M42.5783 41.1385L45.6586 39.2617V38.5441L41.4004 41.1385H42.5783Z" fill="#01BDE1"/>
</g>
<path d="M45.6587 37.5114H40.3359V41.1364H45.6587V37.5114Z" stroke="#BDC6CB" stroke-linecap="round" stroke-linejoin="round"/>
<path d="M45.6587 36.4683H40.3359V38.0444H45.6587V36.4683Z" fill="white" stroke="#BDC6CB" stroke-linecap="round" stroke-linejoin="round"/>
<path d="M38.0493 44.4711H32.7266V48.0961H38.0493V44.4711Z" fill="white"/>
<g style="mix-blend-mode:multiply" opacity="0.6">
<path d="M37.2696 44.4711L32.7266 47.2397V47.9572L38.0493 44.7138V44.4711H37.2696Z" fill="#01BDE1"/>
<path d="M34.9689 48.0982L38.0492 46.2214V45.5039L33.791 48.0982H34.9689Z" fill="#01BDE1"/>
</g>
<path d="M38.0493 44.4711H32.7266V48.0961H38.0493V44.4711Z" stroke="#BDC6CB" stroke-linecap="round" stroke-linejoin="round"/>
<path d="M38.0493 43.428H32.7266V45.0041H38.0493V43.428Z" fill="white" stroke="#BDC6CB" stroke-linecap="round" stroke-linejoin="round"/>
<path d="M45.6587 44.4711H40.3359V48.0961H45.6587V44.4711Z" fill="white"/>
<g style="mix-blend-mode:multiply" opacity="0.6">
<path d="M44.8789 44.4711L40.3359 47.2397V47.9572L45.6587 44.7138V44.4711H44.8789Z" fill="#01BDE1"/>
<path d="M42.5783 48.0982L45.6586 46.2214V45.5039L41.4004 48.0982H42.5783Z" fill="#01BDE1"/>
</g>
<path d="M45.6587 44.4711H40.3359V48.0961H45.6587V44.4711Z" stroke="#BDC6CB" stroke-linecap="round" stroke-linejoin="round"/>
<path d="M45.6587 43.428H40.3359V45.0041H45.6587V43.428Z" fill="white" stroke="#BDC6CB" stroke-linecap="round" stroke-linejoin="round"/>
<path d="M54.9995 9.67267H49.6768V13.2977H54.9995V9.67267Z" fill="white"/>
<g style="mix-blend-mode:multiply" opacity="0.6">
<path d="M49.6768 12.4391V13.1567L54.9995 9.9153V9.67267H54.2198" fill="#01BDE1"/>
<path d="M54.9996 11.423V10.7054L50.7441 13.2977H51.9221" fill="#01BDE1"/>
</g>
<path d="M54.9995 9.67267H49.6768V13.2977H54.9995V9.67267Z" stroke="#BDC6CB" stroke-linecap="round" stroke-linejoin="round"/>
<path d="M54.9995 8.62747H49.6768V10.2036H54.9995V8.62747Z" fill="white" stroke="#BDC6CB" stroke-linecap="round" stroke-linejoin="round"/>
<path d="M62.6089 9.67267H57.2861V13.2977H62.6089V9.67267Z" fill="white"/>
<g style="mix-blend-mode:multiply" opacity="0.6">
<path d="M62.6089 9.9153V9.67267H61.8291L57.2861 12.4391V13.1567" fill="#01BDE1"/>
<path d="M62.609 11.423V10.7054L58.3535 13.2977H59.5314" fill="#01BDE1"/>
</g>
<path d="M62.6089 9.67267H57.2861V13.2977H62.6089V9.67267Z" stroke="#BDC6CB" stroke-linecap="round" stroke-linejoin="round"/>
<path d="M62.6089 8.62747H57.2861V10.2036H62.6089V8.62747Z" fill="white" stroke="#BDC6CB" stroke-linecap="round" stroke-linejoin="round"/>
<path d="M70.2183 9.67267H64.8955V13.2977H70.2183V9.67267Z" fill="white"/>
<g style="mix-blend-mode:multiply" opacity="0.6">
<path d="M64.8955 12.4391V13.1567L70.2183 9.9153V9.67267H69.4385" fill="#01BDE1"/>
<path d="M65.9629 13.2977H67.1408L70.2183 11.423V10.7054" fill="#01BDE1"/>
</g>
<path d="M70.2183 9.67267H64.8955V13.2977H70.2183V9.67267Z" stroke="#BDC6CB" stroke-linecap="round" stroke-linejoin="round"/>
<path d="M70.2183 8.62747H64.8955V10.2036H70.2183V8.62747Z" fill="white" stroke="#BDC6CB" stroke-linecap="round" stroke-linejoin="round"/>
<path d="M54.9995 16.6324H49.6768V20.2574H54.9995V16.6324Z" fill="white"/>
<g style="mix-blend-mode:multiply" opacity="0.6">
<path d="M49.6768 19.4009V20.1163L54.9995 16.875V16.6324H54.2198" fill="#01BDE1"/>
<path d="M50.7441 20.2574H51.9221L54.9996 18.3827V17.6651" fill="#01BDE1"/>
</g>
<path d="M54.9995 16.6324H49.6768V20.2574H54.9995V16.6324Z" stroke="#BDC6CB" stroke-linecap="round" stroke-linejoin="round"/>
<path d="M54.9995 15.5872H49.6768V17.1632H54.9995V15.5872Z" fill="white" stroke="#BDC6CB" stroke-linecap="round" stroke-linejoin="round"/>
<path d="M62.6089 16.6324H57.2861V20.2574H62.6089V16.6324Z" fill="white"/>
<g style="mix-blend-mode:multiply" opacity="0.6">
<path d="M57.2861 19.4009V20.1163L62.6089 16.875V16.6324H61.8291" fill="#01BDE1"/>
<path d="M58.3535 20.2574H59.5314L62.609 18.3827V17.6651" fill="#01BDE1"/>
</g>
<path d="M62.6089 16.6324H57.2861V20.2574H62.6089V16.6324Z" stroke="#BDC6CB" stroke-linecap="round" stroke-linejoin="round"/>
<path d="M62.6089 15.5872H57.2861V17.1632H62.6089V15.5872Z" fill="white" stroke="#BDC6CB" stroke-linecap="round" stroke-linejoin="round"/>
<path d="M70.2183 16.6324H64.8955V20.2574H70.2183V16.6324Z" fill="white"/>
<g style="mix-blend-mode:multiply" opacity="0.6">
<path d="M64.8955 19.4009V20.1163L70.2183 16.875V16.6324H69.4385" fill="#01BDE1"/>
<path d="M70.2183 18.3827V17.6651L65.9629 20.2574H67.1408" fill="#01BDE1"/>
</g>
<path d="M70.2183 16.6324H64.8955V20.2574H70.2183V16.6324Z" stroke="#BDC6CB" stroke-linecap="round" stroke-linejoin="round"/>
<path d="M70.2183 15.5872H64.8955V17.1632H70.2183V15.5872Z" fill="white" stroke="#BDC6CB" stroke-linecap="round" stroke-linejoin="round"/>
<path d="M54.9995 23.5921H49.6768V27.2171H54.9995V23.5921Z" fill="white"/>
<g style="mix-blend-mode:multiply" opacity="0.6">
<path d="M49.6768 26.3606V27.0781L54.9995 23.8347V23.5921H54.2198" fill="#01BDE1"/>
<path d="M54.9996 25.3423V24.6248L50.7441 27.217H51.9221" fill="#01BDE1"/>
</g>
<path d="M54.9995 23.5921H49.6768V27.2171H54.9995V23.5921Z" stroke="#BDC6CB" stroke-linecap="round" stroke-linejoin="round"/>
<path d="M54.9995 22.549H49.6768V24.125H54.9995V22.549Z" fill="white" stroke="#BDC6CB" stroke-linecap="round" stroke-linejoin="round"/>
<path d="M62.6089 23.5921H57.2861V27.2171H62.6089V23.5921Z" fill="white"/>
<g style="mix-blend-mode:multiply" opacity="0.6">
<path d="M57.2861 26.3606V27.0781L62.6089 23.8347V23.5921H61.8291" fill="#01BDE1"/>
<path d="M62.609 25.3423V24.6248L58.3535 27.217H59.5314" fill="#01BDE1"/>
</g>
<path d="M62.6089 23.5921H57.2861V27.2171H62.6089V23.5921Z" stroke="#BDC6CB" stroke-linecap="round" stroke-linejoin="round"/>
<path d="M62.6089 22.549H57.2861V24.125H62.6089V22.549Z" fill="white" stroke="#BDC6CB" stroke-linecap="round" stroke-linejoin="round"/>
<path d="M70.2183 23.5921H64.8955V27.2171H70.2183V23.5921Z" fill="white"/>
<g style="mix-blend-mode:multiply" opacity="0.6">
<path d="M64.8955 26.3606V27.0781L70.2183 23.8347V23.5921H69.4385" fill="#01BDE1"/>
<path d="M65.9629 27.217H67.1408L70.2183 25.3423V24.6248" fill="#01BDE1"/>
</g>
<path d="M70.2183 23.5921H64.8955V27.2171H70.2183V23.5921Z" stroke="#BDC6CB" stroke-linecap="round" stroke-linejoin="round"/>
<path d="M70.2183 22.549H64.8955V24.125H70.2183V22.549Z" fill="white" stroke="#BDC6CB" stroke-linecap="round" stroke-linejoin="round"/>
<path d="M54.9995 30.5517H49.6768V34.1767H54.9995V30.5517Z" fill="white"/>
<g style="mix-blend-mode:multiply" opacity="0.6">
<path d="M54.2198 30.5517L49.6768 33.3202V34.0378L54.9995 30.7943V30.5517H54.2198Z" fill="#01BDE1"/>
<path d="M51.9221 34.1788L54.9996 32.302V31.5845L50.7441 34.1788H51.9221Z" fill="#01BDE1"/>
</g>
<path d="M54.9995 30.5517H49.6768V34.1767H54.9995V30.5517Z" stroke="#BDC6CB" stroke-linecap="round" stroke-linejoin="round"/>
<path d="M54.9995 29.5086H49.6768V31.0847H54.9995V29.5086Z" fill="white" stroke="#BDC6CB" stroke-linecap="round" stroke-linejoin="round"/>
<path d="M62.6089 30.5517H57.2861V34.1767H62.6089V30.5517Z" fill="white"/>
<g style="mix-blend-mode:multiply" opacity="0.6">
<path d="M57.2861 33.3202V34.0378L62.6089 30.7943V30.5517H61.8291" fill="#01BDE1"/>
<path d="M62.609 32.302V31.5845L58.3535 34.1788H59.5314" fill="#01BDE1"/>
</g>
<path d="M62.6089 30.5517H57.2861V34.1767H62.6089V30.5517Z" stroke="#BDC6CB" stroke-linecap="round" stroke-linejoin="round"/>
<path d="M62.6089 29.5086H57.2861V31.0847H62.6089V29.5086Z" fill="white" stroke="#BDC6CB" stroke-linecap="round" stroke-linejoin="round"/>
<path d="M70.2183 30.5517H64.8955V34.1767H70.2183V30.5517Z" fill="white"/>
<g style="mix-blend-mode:multiply" opacity="0.6">
<path d="M64.8955 33.3202V34.0378L70.2183 30.7943V30.5517H69.4385" fill="#01BDE1"/>
<path d="M65.9629 34.1788H67.1408L70.2183 32.302V31.5845" fill="#01BDE1"/>
</g>
<path d="M70.2183 30.5517H64.8955V34.1767H70.2183V30.5517Z" stroke="#BDC6CB" stroke-linecap="round" stroke-linejoin="round"/>
<path d="M70.2183 29.5086H64.8955V31.0847H70.2183V29.5086Z" fill="white" stroke="#BDC6CB" stroke-linecap="round" stroke-linejoin="round"/>
<path d="M54.9995 37.5114H49.6768V41.1364H54.9995V37.5114Z" fill="white"/>
<g style="mix-blend-mode:multiply" opacity="0.6">
<path d="M54.2198 37.5114L49.6768 40.2799V40.9974L54.9995 37.754V37.5114H54.2198Z" fill="#01BDE1"/>
<path d="M51.9221 41.1385L54.9996 39.2617V38.5441L50.7441 41.1385H51.9221Z" fill="#01BDE1"/>
</g>
<path d="M54.9995 37.5114H49.6768V41.1364H54.9995V37.5114Z" stroke="#BDC6CB" stroke-linecap="round" stroke-linejoin="round"/>
<path d="M54.9995 36.4683H49.6768V38.0444H54.9995V36.4683Z" fill="white" stroke="#BDC6CB" stroke-linecap="round" stroke-linejoin="round"/>
<path d="M62.6089 37.5114H57.2861V41.1364H62.6089V37.5114Z" fill="white"/>
<g style="mix-blend-mode:multiply" opacity="0.6">
<path d="M61.8291 37.5114L57.2861 40.2799V40.9974L62.6089 37.754V37.5114H61.8291Z" fill="#01BDE1"/>
<path d="M59.5314 41.1385L62.609 39.2617V38.5441L58.3535 41.1385H59.5314Z" fill="#01BDE1"/>
</g>
<path d="M62.6089 37.5114H57.2861V41.1364H62.6089V37.5114Z" stroke="#BDC6CB" stroke-linecap="round" stroke-linejoin="round"/>
<path d="M62.6089 36.4683H57.2861V38.0444H62.6089V36.4683Z" fill="white" stroke="#BDC6CB" stroke-linecap="round" stroke-linejoin="round"/>
<path d="M70.2183 37.5114H64.8955V41.1364H70.2183V37.5114Z" fill="white"/>
<g style="mix-blend-mode:multiply" opacity="0.6">
<path d="M70.2183 37.754V37.5114H69.4385L64.8955 40.2799V40.9974" fill="#01BDE1"/>
<path d="M65.9629 41.1385H67.1408L70.2183 39.2617V38.5441" fill="#01BDE1"/>
</g>
<path d="M70.2183 37.5114H64.8955V41.1364H70.2183V37.5114Z" stroke="#BDC6CB" stroke-linecap="round" stroke-linejoin="round"/>
<path d="M70.2183 36.4683H64.8955V38.0444H70.2183V36.4683Z" fill="white" stroke="#BDC6CB" stroke-linecap="round" stroke-linejoin="round"/>
<path d="M54.9995 44.4711H49.6768V48.0961H54.9995V44.4711Z" fill="white"/>
<g style="mix-blend-mode:multiply" opacity="0.6">
<path d="M54.2198 44.4711L49.6768 47.2397V47.9572L54.9995 44.7138V44.4711H54.2198Z" fill="#01BDE1"/>
<path d="M51.9221 48.0982L54.9996 46.2214V45.5039L50.7441 48.0982H51.9221Z" fill="#01BDE1"/>
</g>
<path d="M54.9995 44.4711H49.6768V48.0961H54.9995V44.4711Z" stroke="#BDC6CB" stroke-linecap="round" stroke-linejoin="round"/>
<path d="M54.9995 43.428H49.6768V45.0041H54.9995V43.428Z" fill="white" stroke="#BDC6CB" stroke-linecap="round" stroke-linejoin="round"/>
<path d="M62.6089 44.4711H57.2861V48.0961H62.6089V44.4711Z" fill="white"/>
<g style="mix-blend-mode:multiply" opacity="0.6">
<path d="M61.8291 44.4711L57.2861 47.2397V47.9572L62.6089 44.7138V44.4711H61.8291Z" fill="#01BDE1"/>
<path d="M59.5314 48.0982L62.609 46.2214V45.5039L58.3535 48.0982H59.5314Z" fill="#01BDE1"/>
</g>
<path d="M62.6089 44.4711H57.2861V48.0961H62.6089V44.4711Z" stroke="#BDC6CB" stroke-linecap="round" stroke-linejoin="round"/>
<path d="M62.6089 43.428H57.2861V45.0041H62.6089V43.428Z" fill="white" stroke="#BDC6CB" stroke-linecap="round" stroke-linejoin="round"/>
<path d="M70.2183 44.4711H64.8955V48.0961H70.2183V44.4711Z" fill="white"/>
<g style="mix-blend-mode:multiply" opacity="0.6">
<path d="M69.4385 44.4711L64.8955 47.2397V47.9572L70.2183 44.7138V44.4711H69.4385Z" fill="#01BDE1"/>
<path d="M67.1408 48.0982L70.2183 46.2214V45.5039L65.9629 48.0982H67.1408Z" fill="#01BDE1"/>
</g>
<path d="M70.2183 44.4711H64.8955V48.0961H70.2183V44.4711Z" stroke="#BDC6CB" stroke-linecap="round" stroke-linejoin="round"/>
<path d="M70.2183 43.428H64.8955V45.0041H70.2183V43.428Z" fill="white" stroke="#BDC6CB" stroke-linecap="round" stroke-linejoin="round"/>
<path d="M70.1513 50.1989H49.416V52.1711H70.1513V50.1989Z" fill="#BDC6CB" stroke="#BDC6CB" stroke-linecap="round" stroke-linejoin="round"/>
<path d="M70.1513 49.6287H49.416V51.6009H70.1513V49.6287Z" fill="white" stroke="#BDC6CB" stroke-linecap="round" stroke-linejoin="round"/>
<path d="M41.2123 1H29.917V6.22184H41.2123V1Z" fill="#BDC6CB" stroke="#BDC6CB" stroke-linecap="round" stroke-linejoin="round"/>
<path d="M41.2155 1H37.3057V6.22184H41.2155V1Z" fill="white" stroke="#BDC6CB" stroke-linecap="round" stroke-linejoin="round"/>
<path d="M69.8418 2.27539H65.1992V6.22184H69.8418V2.27539Z" fill="#BDC6CB" stroke="#BDC6CB" stroke-linecap="round" stroke-linejoin="round"/>
<path d="M72.8919 3.72708H28.9189V6.22394H72.8919V3.72708Z" fill="#BDC6CB" stroke="#BDC6CB" stroke-linecap="round" stroke-linejoin="round"/>
<path d="M72.8915 3.72708H46.5957V6.22394H72.8915V3.72708Z" fill="white" stroke="#BDC6CB" stroke-linecap="round" stroke-linejoin="round"/>
<path d="M47.7266 3.72708V4.77435" stroke="#BDC6CB" stroke-width="0.75" stroke-linecap="round" stroke-linejoin="round"/>
<path d="M48.4463 3.72708V4.77435" stroke="#BDC6CB" stroke-width="0.75" stroke-linecap="round" stroke-linejoin="round"/>
<path d="M48.4463 5.05643V5.85692" stroke="#BDC6CB" stroke-width="0.75" stroke-linecap="round" stroke-linejoin="round"/>
<path d="M49.168 3.72708V4.77435" stroke="#BDC6CB" stroke-width="0.75" stroke-linecap="round" stroke-linejoin="round"/>
<path d="M49.168 5.10202V5.84444" stroke="#BDC6CB" stroke-width="0.75" stroke-linecap="round" stroke-linejoin="round"/>
<path d="M49.8369 5.10202V5.5707" stroke="#BDC6CB" stroke-width="0.75" stroke-linecap="round" stroke-linejoin="round"/>
<path d="M49.8867 3.72708V4.77435" stroke="#BDC6CB" stroke-width="0.75" stroke-linecap="round" stroke-linejoin="round"/>
<path d="M50.7021 4.50888V4.77433" stroke="#BDC6CB" stroke-width="0.75" stroke-linecap="round" stroke-linejoin="round"/>
<path d="M50.749 3.72708V4.32226" stroke="#BDC6CB" stroke-width="0.75" stroke-linecap="round" stroke-linejoin="round"/>
<path d="M47.7266 4.9859V5.60597" stroke="#BDC6CB" stroke-width="0.75" stroke-linecap="round" stroke-linejoin="round"/>
<path d="M18.9728 55.3855C18.9728 55.3855 21.2844 54.8132 20.6318 55.257C20.5442 55.3183 20.4519 55.3758 20.3553 55.4291H13.5173L13.3099 55.1159L13.2602 55.0413L13.1772 54.9148L14.0067 54.5L13.1302 54.8526L12.9007 54.4648L13.0777 53.1603L12.8012 54.3486L12.6325 54.0313L11.8666 52.9322L13.1109 55.006L11.3301 54.4751L13.1855 55.1201L13.4012 55.4477H6.01568C5.61198 55.4146 5.04514 55.3275 4.94283 55.0848C4.77693 54.7053 6.51063 54.7053 6.51063 54.7053C6.51063 54.7053 4.69397 54.133 5.35483 54.0065C6.01568 53.88 7.17148 54.386 7.17148 54.386C7.17148 54.386 6.51063 53.2433 7.33462 53.4963C7.55164 53.5623 7.74814 53.6612 7.91182 53.7868C8.0755 53.9124 8.20282 54.062 8.2858 54.2263C8.19732 54.0023 8.03142 53.4735 8.49042 53.6249C8.77789 53.7334 9.01922 53.9001 9.18722 54.106C8.96601 53.7659 8.77246 53.2599 9.74023 53.4341C9.74023 53.4341 9.53838 51.8746 11.72 51.5905C13.9017 51.3064 13.7855 53.5606 14.5266 54.0065C15.2676 54.4523 16.1856 53.9422 16.5091 54.4502C16.8326 54.9583 16.7552 55.2134 16.7552 55.2134C16.7552 55.2134 17.994 52.7352 18.1599 53.4341C18.2319 53.9012 18.0853 54.3726 17.7451 54.7675C17.7451 54.7675 19.7277 52.7974 19.3157 53.5606C19.0631 54.0242 18.7588 54.4709 18.406 54.8961C18.406 54.8961 21.1296 54.386 20.7176 54.7053C20.3056 55.0247 18.9728 55.3855 18.9728 55.3855Z" fill="#01BDE1"/>
<path d="M15.6996 55.0268C15.719 54.9127 15.7466 54.7489 15.7964 54.554C15.8102 54.498 15.824 54.4399 15.8434 54.3777C15.9854 54.3941 16.13 54.3941 16.272 54.3777C16.3308 54.3658 16.3858 54.3449 16.4333 54.3164C16.4809 54.2878 16.5201 54.2522 16.5485 54.2118C16.5589 54.1917 16.5637 54.1702 16.5626 54.1486C16.5615 54.1271 16.5545 54.1059 16.5421 54.0865C16.5296 54.0671 16.512 54.0498 16.4903 54.0356C16.4685 54.0215 16.4432 54.0109 16.4158 54.0044C16.2471 53.9712 16.0065 54.1247 15.9208 54.2242C15.9208 54.2242 15.8628 54.3092 15.8379 54.3507C15.8379 54.3134 15.86 54.2781 15.871 54.2387C15.8821 54.1993 15.907 54.1268 15.9236 54.0708C15.9402 54.0148 15.9485 54.0127 15.9595 53.9837C15.9706 53.9546 15.9844 53.9277 15.9955 53.8966L16.0618 53.7701C16.1927 53.8003 16.3286 53.8164 16.4655 53.8178C16.5282 53.8142 16.5891 53.8005 16.644 53.7776C16.6989 53.7547 16.7465 53.7231 16.7835 53.685C16.7987 53.6664 16.8085 53.6456 16.8123 53.6239C16.8161 53.6022 16.8137 53.5802 16.8053 53.5593C16.797 53.5383 16.7828 53.5189 16.7638 53.5024C16.7448 53.4858 16.7214 53.4724 16.695 53.4631C16.5347 53.4113 16.2665 53.5357 16.1614 53.6249L16.1171 53.6726L16.1918 53.5482C16.2665 53.4299 16.3494 53.3138 16.4296 53.1956L16.4794 53.121C16.6123 53.154 16.7514 53.1708 16.8914 53.1707C16.9543 53.168 17.0158 53.1549 17.0712 53.1323C17.1267 53.1097 17.1748 53.0782 17.2121 53.0401C17.2272 53.0213 17.2369 53.0004 17.2405 52.9786C17.244 52.9568 17.2414 52.9347 17.2328 52.9138C17.2242 52.8928 17.2097 52.8735 17.1905 52.857C17.1712 52.8405 17.1475 52.8273 17.1209 52.8182C16.9605 52.7663 16.6923 52.8908 16.59 52.9779C16.59 52.9779 16.5623 53.0048 16.5374 53.0339C16.5817 52.9675 16.6231 52.9032 16.6591 52.8389C16.7271 52.7274 16.7844 52.6123 16.8305 52.4947C16.9682 52.5278 17.1117 52.5453 17.2563 52.5465C17.3189 52.5438 17.38 52.5306 17.4349 52.508C17.4899 52.4854 17.5376 52.454 17.5743 52.4159C17.5895 52.3972 17.5993 52.3764 17.6031 52.3547C17.6069 52.333 17.6045 52.311 17.5961 52.2901C17.5878 52.2692 17.5737 52.2498 17.5547 52.2332C17.5357 52.2167 17.5122 52.2033 17.4859 52.194C17.3255 52.1421 17.0573 52.2665 16.9522 52.3536L16.8361 52.4801C16.8761 52.3638 16.9039 52.2452 16.919 52.1255C16.9316 52.018 16.9362 51.91 16.9328 51.802C16.9328 51.7025 16.919 51.6112 16.9107 51.5324C16.9107 51.4889 16.9107 51.4474 16.8914 51.4121C16.8914 51.4121 16.955 51.2608 16.9577 51.2525C16.9854 51.1363 16.9577 50.902 16.7918 50.8377C16.7661 50.8296 16.7384 50.8254 16.7105 50.8254C16.6826 50.8254 16.6549 50.8296 16.6292 50.8377C16.6035 50.8458 16.5801 50.8577 16.5606 50.8727C16.541 50.8876 16.5256 50.9053 16.5153 50.9248C16.4996 50.9702 16.4971 51.0176 16.5081 51.0638C16.5191 51.1099 16.5432 51.1538 16.5789 51.1923C16.668 51.2732 16.7734 51.3432 16.8914 51.3997C16.8914 51.4391 16.8914 51.4806 16.908 51.5262C16.908 51.6071 16.908 51.6983 16.908 51.7958C16.908 51.8228 16.908 51.8518 16.908 51.8787C16.908 51.8331 16.8803 51.7688 16.8775 51.7626C16.8305 51.6506 16.6508 51.4557 16.4766 51.4557C16.4475 51.4558 16.4187 51.4605 16.3922 51.4696C16.3657 51.4788 16.3422 51.492 16.323 51.5085C16.3039 51.525 16.2897 51.5443 16.2814 51.5653C16.2731 51.5862 16.2708 51.6082 16.2748 51.6299C16.2888 51.6759 16.3159 51.7191 16.354 51.7567C16.3922 51.7942 16.4406 51.8252 16.496 51.8476C16.626 51.8899 16.7641 51.9165 16.9052 51.9264C16.9052 51.9887 16.9052 52.0509 16.8886 52.1152C16.8714 52.2339 16.8399 52.3512 16.7946 52.4656V52.4843C16.7946 52.4615 16.7946 52.3308 16.778 52.3205C16.7476 52.2064 16.5983 51.997 16.4241 51.9824C16.3951 51.9804 16.366 51.9829 16.3385 51.99C16.311 51.997 16.2858 52.0084 16.2646 52.0233C16.2434 52.0382 16.2267 52.0563 16.2156 52.0765C16.2045 52.0966 16.1992 52.1183 16.2001 52.14C16.2062 52.1869 16.226 52.2322 16.258 52.2727C16.29 52.3132 16.3335 52.3479 16.3854 52.3744C16.5126 52.4273 16.6495 52.4657 16.7918 52.4884C16.7434 52.6011 16.6852 52.7112 16.6176 52.8182C16.5678 52.8991 16.5125 52.9779 16.4572 53.0567C16.4572 53.0256 16.4572 52.9032 16.4407 52.8949C16.4102 52.7808 16.2609 52.5714 16.0895 52.5569C16.0604 52.5548 16.0311 52.5574 16.0035 52.5644C15.9759 52.5715 15.9505 52.5828 15.9291 52.5977C15.9077 52.6125 15.8908 52.6306 15.8793 52.6508C15.8679 52.6709 15.8622 52.6926 15.8628 52.7145C15.8694 52.7612 15.8897 52.8062 15.9222 52.8464C15.9547 52.8865 15.9986 52.9208 16.0508 52.9468C16.1763 53.0013 16.3125 53.0405 16.4545 53.0629C16.4268 53.0981 16.4019 53.1334 16.3771 53.1687C16.2941 53.2869 16.2084 53.403 16.1282 53.5191C16.1033 53.5606 16.0784 53.6 16.0508 53.6415C16.0508 53.5959 16.0508 53.5108 16.0508 53.5025C16.0204 53.3885 15.871 53.179 15.6968 53.1645C15.6679 53.1624 15.6387 53.165 15.6113 53.172C15.5838 53.1791 15.5586 53.1904 15.5374 53.2054C15.5162 53.2203 15.4995 53.2384 15.4884 53.2585C15.4772 53.2787 15.472 53.3003 15.4729 53.3221C15.4789 53.3692 15.499 53.4147 15.5315 53.4553C15.564 53.4958 15.6082 53.5304 15.6609 53.5565C15.7817 53.6082 15.9122 53.6459 16.048 53.6684C16.0065 53.7369 15.9678 53.8053 15.9346 53.8758C15.9346 53.9069 15.9042 53.936 15.8932 53.965L15.8572 54.0521C15.8351 54.1122 15.813 54.1661 15.7964 54.2221C15.7798 54.2781 15.777 54.2781 15.7687 54.3051C15.7687 54.2574 15.7687 54.1827 15.7687 54.1765C15.7687 54.0583 15.6581 53.8364 15.4922 53.8012C15.464 53.7957 15.4344 53.7948 15.4057 53.7986C15.3769 53.8024 15.3496 53.8107 15.3255 53.8231C15.3014 53.8355 15.2811 53.8516 15.266 53.8704C15.2508 53.8891 15.2413 53.9101 15.2378 53.9318C15.2347 53.979 15.2454 54.0262 15.2693 54.0699C15.2932 54.1136 15.3297 54.1529 15.3761 54.1848C15.4901 54.2501 15.6158 54.3032 15.7494 54.3424C15.7273 54.4088 15.7079 54.4751 15.6913 54.5374C15.636 54.7323 15.6028 54.8982 15.5807 55.0123C15.5586 55.1263 15.5475 55.1948 15.5475 55.1948C15.5468 55.2008 15.5476 55.2068 15.55 55.2126C15.5524 55.2183 15.5562 55.2237 15.5614 55.2283C15.5665 55.2329 15.5728 55.2367 15.5799 55.2395C15.5871 55.2423 15.5948 55.244 15.6028 55.2445C15.6108 55.2451 15.6189 55.2445 15.6266 55.2427C15.6342 55.2409 15.6414 55.238 15.6475 55.2342C15.6537 55.2303 15.6588 55.2256 15.6625 55.2202C15.6662 55.2149 15.6685 55.2091 15.6692 55.2031C15.6692 55.2031 15.6803 55.1408 15.6996 55.0268Z" fill="#01BDE1"/>
<path d="M16.9464 51.9161C17.0924 51.9205 17.2386 51.9094 17.3805 51.8829C17.4397 51.8672 17.4937 51.842 17.5386 51.809C17.5835 51.7761 17.6182 51.7362 17.6404 51.6921C17.6486 51.6712 17.6508 51.6493 17.6469 51.6277C17.6429 51.6061 17.6329 51.5855 17.6175 51.567C17.6021 51.5486 17.5816 51.5328 17.5574 51.5208C17.5332 51.5087 17.5059 51.5007 17.4773 51.4972C17.3031 51.4785 17.0874 51.6506 17.021 51.7564C17.0155 51.7668 16.9436 51.9161 16.9464 51.9161Z" fill="#01BDE1"/>
<path d="M15.5303 55.0247C15.4612 54.9231 15.3672 54.7737 15.2538 54.5912C15.2234 54.5394 15.193 54.4834 15.1626 54.4253C15.2932 54.3809 15.4143 54.3222 15.522 54.2511C15.5656 54.2169 15.5988 54.1761 15.6193 54.1313C15.6399 54.0866 15.6472 54.039 15.6409 53.9919C15.6355 53.9695 15.6237 53.9483 15.6061 53.9297C15.5886 53.9111 15.5659 53.8956 15.5395 53.8843C15.5131 53.8731 15.4838 53.8663 15.4535 53.8644C15.4233 53.8626 15.3928 53.8658 15.3644 53.8737C15.1985 53.9152 15.1128 54.1433 15.1155 54.2594C15.1155 54.2594 15.1155 54.3569 15.1377 54.4005C15.1211 54.3652 15.1017 54.332 15.0824 54.2947C15.063 54.2574 15.0298 54.1869 15.0049 54.1309L14.969 54.0458C14.9552 54.0168 14.9469 53.9878 14.9358 53.9567C14.9248 53.9256 14.9109 53.8696 14.8971 53.8239C15.0286 53.7963 15.1536 53.7537 15.2676 53.6974C15.3178 53.6686 15.359 53.632 15.3886 53.5901C15.4182 53.5483 15.4354 53.5021 15.4391 53.4548C15.4378 53.433 15.4305 53.4117 15.4175 53.3921C15.4046 53.3726 15.3863 53.3553 15.3639 53.3415C15.3415 53.3276 15.3154 53.3174 15.2874 53.3115C15.2594 53.3057 15.23 53.3043 15.2013 53.3076C15.0271 53.3304 14.8971 53.544 14.875 53.6601C14.875 53.6601 14.875 53.6891 14.875 53.7182C14.875 53.6746 14.8529 53.6311 14.8446 53.5855C14.8224 53.4569 14.8031 53.3242 14.7837 53.1935C14.7837 53.1645 14.7837 53.1375 14.7837 53.1106C14.919 53.0827 15.0477 53.0393 15.1653 52.982C15.2155 52.9531 15.2567 52.9166 15.2863 52.8747C15.3159 52.8328 15.3331 52.7866 15.3368 52.7393C15.3355 52.7176 15.3282 52.6962 15.3152 52.6767C15.3023 52.6571 15.284 52.6399 15.2616 52.626C15.2392 52.6121 15.2131 52.6019 15.1851 52.5961C15.1571 52.5902 15.1277 52.5889 15.099 52.5921C14.9248 52.6149 14.7948 52.8285 14.7727 52.9446C14.7727 52.9446 14.7727 52.9799 14.7727 53.0131C14.7727 52.9405 14.7478 52.87 14.7312 52.8057C14.7048 52.6851 14.6678 52.566 14.6206 52.449C14.7595 52.4196 14.8918 52.3749 15.0132 52.3163C15.0637 52.2878 15.1051 52.2513 15.1342 52.2093C15.1634 52.1673 15.1797 52.121 15.1819 52.0737C15.1807 52.0519 15.1733 52.0305 15.1604 52.011C15.1474 51.9915 15.1292 51.9742 15.1067 51.9603C15.0843 51.9464 15.0583 51.9362 15.0302 51.9304C15.0022 51.9245 14.9729 51.9232 14.9441 51.9264C14.7727 51.9492 14.64 52.1649 14.6206 52.281C14.6206 52.281 14.6206 52.3972 14.6206 52.4345C14.5705 52.3205 14.5066 52.2101 14.4298 52.1048C14.3624 52.0103 14.2876 51.9189 14.2058 51.831C14.1312 51.7481 14.0538 51.6776 13.9874 51.6133L13.8823 51.5199C13.8823 51.5199 13.8243 51.3686 13.8187 51.3582C13.7551 51.2524 13.5422 51.072 13.3763 51.0844C13.3475 51.0873 13.3198 51.0947 13.295 51.1061C13.2703 51.1176 13.249 51.1328 13.2326 51.1507C13.2161 51.1687 13.2049 51.1891 13.1997 51.2106C13.1944 51.232 13.1953 51.254 13.2021 51.2752C13.2207 51.3214 13.2526 51.3639 13.2956 51.3998C13.3387 51.4356 13.3917 51.4639 13.451 51.4826C13.5862 51.5138 13.727 51.5291 13.8685 51.5282L13.9736 51.6278C14.0399 51.6921 14.1118 51.7647 14.1837 51.8476C14.2031 51.8683 14.2224 51.8932 14.2418 51.916L14.1312 51.8331C14.0095 51.7584 13.7164 51.6693 13.5782 51.7418C13.5546 51.7543 13.5347 51.7703 13.5198 51.7888C13.5049 51.8073 13.4953 51.828 13.4916 51.8495C13.488 51.871 13.4904 51.8928 13.4986 51.9135C13.5068 51.9343 13.5207 51.9535 13.5395 51.97C13.5848 52.003 13.6392 52.0283 13.6989 52.0441C13.7586 52.0598 13.8221 52.0657 13.8851 52.0612C14.0248 52.0415 14.1598 52.0065 14.286 51.9575C14.3275 52.0094 14.369 52.0633 14.4077 52.1234C14.4813 52.2281 14.5415 52.3378 14.5874 52.4511C14.5885 52.458 14.5885 52.4649 14.5874 52.4718C14.5708 52.4532 14.463 52.3495 14.4547 52.3432C14.3441 52.2603 14.0676 52.1462 13.9017 52.2064C13.8763 52.2168 13.8541 52.2311 13.8365 52.2483C13.8189 52.2655 13.8064 52.2853 13.7996 52.3064C13.7928 52.3275 13.792 52.3494 13.7972 52.3708C13.8024 52.3921 13.8135 52.4124 13.8298 52.4303C13.8697 52.467 13.9198 52.4966 13.9767 52.517C14.0336 52.5375 14.0958 52.5482 14.1588 52.5486C14.3041 52.5412 14.4468 52.5167 14.5819 52.476C14.6245 52.5904 14.6568 52.7067 14.6787 52.8244C14.6953 52.9115 14.7091 52.9986 14.7201 53.0877L14.5874 52.9612C14.4768 52.8762 14.2003 52.7539 14.0344 52.8244C14.0088 52.8346 13.9863 52.8487 13.9685 52.8659C13.9506 52.883 13.9378 52.9028 13.9307 52.9239C13.9237 52.945 13.9226 52.967 13.9276 52.9884C13.9326 53.0099 13.9436 53.0303 13.9597 53.0483C13.9997 53.0849 14.0499 53.1144 14.1068 53.1348C14.1636 53.1552 14.2258 53.1661 14.2888 53.1665C14.4329 53.1595 14.5747 53.1357 14.7091 53.096L14.7257 53.2163C14.7423 53.347 14.7561 53.4797 14.7754 53.6103L14.8003 53.7451C14.7644 53.7078 14.6925 53.6414 14.687 53.6352C14.5764 53.5523 14.2998 53.4403 14.1339 53.4984C14.1088 53.5092 14.0869 53.5238 14.0695 53.5412C14.0521 53.5587 14.0397 53.5786 14.033 53.5997C14.0262 53.6209 14.0253 53.6429 14.0303 53.6643C14.0353 53.6858 14.0461 53.7062 14.0621 53.7244C14.1024 53.7604 14.1528 53.7895 14.2096 53.8096C14.2664 53.8296 14.3283 53.8402 14.3911 53.8405C14.5304 53.8346 14.6676 53.8122 14.7976 53.7742C14.8142 53.8467 14.8307 53.9214 14.8529 53.9919C14.8529 54.023 14.8722 54.0541 14.8833 54.0832L14.9165 54.1703L14.9911 54.3382C15.0049 54.3652 15.0188 54.3901 15.0298 54.417C14.9994 54.3756 14.9496 54.3092 14.9441 54.3051C14.8529 54.2097 14.6012 54.0666 14.4353 54.1081C14.4092 54.1156 14.3853 54.127 14.3651 54.1416C14.345 54.1562 14.329 54.1737 14.3181 54.1931C14.3073 54.2125 14.3018 54.2333 14.302 54.2544C14.3022 54.2754 14.308 54.2962 14.3192 54.3154C14.3516 54.3559 14.3954 54.3905 14.4474 54.417C14.4994 54.4435 14.5585 54.4612 14.6206 54.4689C14.7642 54.4786 14.9089 54.4709 15.0492 54.4461C15.0796 54.5124 15.1128 54.5747 15.1432 54.6327C15.2427 54.8194 15.334 54.9708 15.4003 55.0765C15.4667 55.1823 15.5082 55.2424 15.5082 55.2424C15.5159 55.2531 15.529 55.2611 15.5445 55.2646C15.5601 55.2681 15.5768 55.2669 15.5911 55.2611C15.6054 55.2553 15.6161 55.2455 15.6208 55.2338C15.6254 55.2222 15.6237 55.2096 15.616 55.1989C15.616 55.1989 15.5884 55.1284 15.5303 55.0247Z" fill="#01BDE1"/>
<path d="M14.2723 51.914C14.3983 51.8583 14.5121 51.7883 14.6097 51.7066C14.6476 51.6693 14.6742 51.6262 14.6876 51.5803C14.701 51.5345 14.7008 51.487 14.6871 51.4412C14.6786 51.4206 14.6644 51.4016 14.6454 51.3854C14.6265 51.3692 14.6032 51.3562 14.5772 51.3472C14.5511 51.3382 14.5228 51.3335 14.4941 51.3332C14.4654 51.3329 14.4369 51.3372 14.4106 51.3458C14.2502 51.4018 14.2004 51.634 14.2198 51.7605C14.2198 51.7605 14.2695 51.9161 14.2723 51.914Z" fill="#01BDE1"/>
<path d="M47.0081 55.3731C47.0081 55.3731 49.9584 54.6431 49.1151 55.2113C49.0018 55.2849 48.8837 55.3541 48.7611 55.4187H40.0456L39.7829 55.0205L39.7193 54.9231L39.6143 54.7613L40.6595 54.2221L39.5534 54.6701L39.2603 54.1744L39.4871 52.5154L39.1304 54.0334L38.9147 53.6186L37.9276 52.2292L39.5147 54.865L37.2418 54.1869L39.6115 55.0164L39.888 55.4311H30.4619C29.9504 55.3897 29.2259 55.2777 29.0932 54.9687C28.883 54.4834 31.0951 54.4834 31.0951 54.4834C31.0951 54.4834 28.778 53.7534 29.6213 53.5917C30.4647 53.4299 31.9384 54.077 31.9384 54.077C31.9384 54.077 31.1089 52.6253 32.1486 52.9426C32.4254 53.0259 32.676 53.1515 32.8845 53.3115C33.093 53.4715 33.2549 53.6622 33.3597 53.8716C33.2491 53.5855 33.0362 52.9115 33.6224 53.1043C33.989 53.2464 34.2962 53.4617 34.51 53.7265C34.2334 53.2931 33.9818 52.6481 35.2012 52.87C35.2012 52.87 34.9441 50.8812 37.7285 50.5183C40.5129 50.1554 40.3636 53.0318 41.3231 53.6C42.2826 54.1682 43.4301 53.517 43.8531 54.1661C44.2762 54.8152 44.1684 55.1387 44.1684 55.1387C44.1684 55.1387 45.7472 51.9783 45.9573 52.87C46.1675 53.7617 45.432 54.5726 45.432 54.5726C45.432 54.5726 47.9593 52.0591 47.4339 53.0318C47.1122 53.6227 46.7246 54.1922 46.2753 54.7343C46.2753 54.7343 49.751 54.0852 49.2229 54.4917C48.6948 54.8982 47.0081 55.3731 47.0081 55.3731Z" fill="#01BDE1"/>
<path d="M42.8301 54.9148C42.855 54.7696 42.8937 54.5602 42.9546 54.3134C42.9712 54.2408 42.9905 54.1662 43.0126 54.0874C43.1959 54.1084 43.3824 54.1084 43.5656 54.0874C43.6432 54.0746 43.7162 54.0495 43.7796 54.0137C43.8431 53.9779 43.8955 53.9323 43.9334 53.88C43.9457 53.8542 43.951 53.8269 43.9492 53.7997C43.9473 53.7724 43.9383 53.7456 43.9226 53.721C43.907 53.6963 43.8849 53.6742 43.8578 53.6559C43.8307 53.6377 43.7991 53.6236 43.7647 53.6145C43.5491 53.571 43.2421 53.768 43.1343 53.8924C43.1343 53.8924 43.0596 54.0023 43.0265 54.0563C43.0403 54.0086 43.0541 53.9629 43.0679 53.9132C43.0818 53.8634 43.1149 53.7701 43.1371 53.7058C43.1536 53.6685 43.1675 53.6311 43.1813 53.5938C43.1951 53.5565 43.2145 53.5212 43.2283 53.4839C43.2421 53.4466 43.2836 53.374 43.314 53.32C43.48 53.361 43.6536 53.382 43.8283 53.3823C43.9085 53.3778 43.9864 53.3602 44.0566 53.3309C44.1268 53.3015 44.1876 53.261 44.2348 53.2122C44.2522 53.1881 44.2631 53.1617 44.2668 53.1345C44.2705 53.1072 44.267 53.0797 44.2565 53.0535C44.2459 53.0273 44.2286 53.0029 44.2054 52.9817C44.1822 52.9605 44.1537 52.943 44.1214 52.9302C43.9168 52.8638 43.5684 53.0235 43.4412 53.1376L43.3832 53.1977C43.4136 53.1458 43.4467 53.0919 43.4799 53.0401C43.5739 52.8908 43.679 52.7394 43.7813 52.5901L43.8449 52.4947C44.0158 52.5356 44.1937 52.5572 44.373 52.559C44.453 52.5547 44.5307 52.5375 44.6009 52.5085C44.6711 52.4795 44.732 52.4394 44.7795 52.391C44.7969 52.3669 44.8078 52.3405 44.8115 52.3132C44.8152 52.286 44.8117 52.2585 44.8012 52.2323C44.7907 52.206 44.7733 52.1816 44.7501 52.1605C44.7269 52.1393 44.6984 52.1218 44.6661 52.1089C44.4615 52.0426 44.1131 52.2002 43.9859 52.3163L43.9196 52.3868C43.9749 52.3039 44.0274 52.2209 44.0772 52.138C44.1624 51.996 44.2344 51.8498 44.2929 51.7004C44.4717 51.7432 44.6581 51.7655 44.8459 51.7668C44.9258 51.7625 45.0036 51.7453 45.0737 51.7163C45.1439 51.6873 45.2049 51.6472 45.2523 51.5988C45.2696 51.5746 45.2804 51.5481 45.2839 51.5207C45.2874 51.4934 45.2837 51.4658 45.2729 51.4396C45.2621 51.4133 45.2444 51.389 45.221 51.3679C45.1975 51.3468 45.1687 51.3294 45.1362 51.3168C44.9316 51.2504 44.5832 51.408 44.4588 51.5241L44.3095 51.6859C44.3623 51.5378 44.3974 51.3865 44.4145 51.2338C44.4324 51.096 44.4379 50.9574 44.4311 50.819C44.4299 50.7033 44.4207 50.5877 44.4035 50.4727C44.4035 50.4167 44.4035 50.367 44.3813 50.3193C44.3813 50.3193 44.4615 50.1264 44.4643 50.1119C44.5002 49.9626 44.4505 49.6639 44.2542 49.5851C44.2206 49.5742 44.1845 49.5684 44.1479 49.568C44.1113 49.5676 44.075 49.5727 44.0411 49.5829C44.0071 49.5931 43.9762 49.6083 43.9501 49.6276C43.9241 49.6468 43.9033 49.6697 43.8892 49.695C43.8679 49.7532 43.8639 49.8141 43.8772 49.8736C43.8906 49.933 43.9211 49.9896 43.9666 50.0393C44.0817 50.1435 44.2168 50.2344 44.3675 50.3089C44.3675 50.3587 44.3813 50.4105 44.3869 50.4686C44.3869 50.5723 44.4062 50.6884 44.4062 50.8149C44.4062 50.8481 44.4062 50.8854 44.4062 50.9207C44.4062 50.8605 44.3703 50.7796 44.3675 50.7713C44.3094 50.6283 44.091 50.3794 43.8587 50.3773C43.8221 50.3792 43.7864 50.3864 43.7536 50.3987C43.7208 50.411 43.6916 50.4281 43.6676 50.4489C43.6437 50.4698 43.6255 50.494 43.6142 50.5201C43.6029 50.5463 43.5986 50.5739 43.6016 50.6013C43.6182 50.6598 43.6515 50.715 43.6993 50.7629C43.747 50.8109 43.808 50.8506 43.8781 50.8792C44.0443 50.933 44.2206 50.9673 44.4007 50.9808C44.4007 51.0596 44.4007 51.1384 44.3758 51.2214C44.3552 51.3725 44.3153 51.5218 44.2569 51.6672V51.6921C44.2569 51.661 44.2403 51.4951 44.2348 51.4847C44.1961 51.3396 44.0081 51.07 43.7869 51.0534C43.7135 51.0534 43.6432 51.0752 43.5913 51.1141C43.5395 51.153 43.5103 51.2058 43.5103 51.2608C43.5188 51.3205 43.5444 51.3781 43.5855 51.4297C43.6265 51.4812 43.682 51.5255 43.7481 51.5594C43.9098 51.6274 44.0841 51.677 44.2652 51.7066C44.2027 51.8481 44.1289 51.9866 44.044 52.1214C43.9804 52.223 43.9113 52.3288 43.8394 52.4242C43.8394 52.3827 43.82 52.2292 43.8173 52.2168C43.7786 52.0716 43.5905 51.802 43.3666 51.7854C43.2932 51.7854 43.2229 51.8073 43.171 51.8462C43.1192 51.8851 43.0901 51.9378 43.0901 51.9928C43.0988 52.0527 43.1249 52.1105 43.1664 52.162C43.208 52.2136 43.264 52.2578 43.3306 52.2914C43.4917 52.3588 43.6649 52.4084 43.8449 52.4387L43.7481 52.5756C43.6403 52.7228 43.5325 52.8721 43.4329 53.0214C43.3979 53.074 43.3647 53.1258 43.3334 53.177C43.3334 53.1168 43.3168 53.009 43.314 53.0007C43.2753 52.8534 43.0845 52.5859 42.8633 52.5673C42.79 52.5673 42.7197 52.5891 42.6678 52.628C42.6159 52.6669 42.5868 52.7196 42.5868 52.7746C42.5949 52.8347 42.6203 52.8928 42.6614 52.9447C42.7025 52.9966 42.7582 53.0412 42.8246 53.0753C42.9798 53.1413 43.1477 53.1889 43.3223 53.2164C43.2698 53.3035 43.22 53.3906 43.1758 53.4777C43.1564 53.515 43.1371 53.5544 43.1232 53.5917C43.1094 53.6291 43.0901 53.6643 43.0762 53.7016C43.0486 53.7784 43.0209 53.8489 42.9988 53.9194C42.9988 53.9567 42.9767 53.9899 42.9656 54.0251C42.9656 53.965 42.9795 53.8675 42.9795 53.8592C42.9795 53.7099 42.8384 53.4258 42.6228 53.3802C42.5868 53.3748 42.5497 53.3748 42.5138 53.3802C42.4778 53.3857 42.4436 53.3964 42.4133 53.4119C42.3829 53.4273 42.3569 53.4471 42.3369 53.4702C42.3168 53.4932 42.3031 53.519 42.2965 53.5461C42.2928 53.6064 42.3067 53.6666 42.3373 53.7225C42.3678 53.7784 42.4143 53.8286 42.4734 53.8696C42.6176 53.9558 42.7778 54.0257 42.949 54.077C42.9242 54.162 42.8965 54.247 42.8771 54.3258C42.808 54.5747 42.7638 54.7842 42.7334 54.9314C42.7029 55.0786 42.6947 55.1637 42.6947 55.1637C42.6931 55.1793 42.6997 55.1948 42.7132 55.2068C42.7266 55.2188 42.7458 55.2264 42.7665 55.228C42.7769 55.2288 42.7874 55.2281 42.7975 55.2258C42.8075 55.2235 42.8167 55.2198 42.8248 55.2147C42.8328 55.2097 42.8393 55.2035 42.8441 55.1965C42.8488 55.1895 42.8516 55.1819 42.8523 55.174C42.8523 55.174 42.8053 55.06 42.8301 54.9148Z" fill="#01BDE1"/>
<path d="M44.4231 50.9476C44.6093 50.9536 44.7956 50.939 44.9761 50.9041C45.0515 50.884 45.1202 50.852 45.1775 50.8101C45.2348 50.7682 45.2793 50.7175 45.3079 50.6614C45.3165 50.6348 45.318 50.607 45.3122 50.5799C45.3064 50.5528 45.2935 50.5268 45.2742 50.5035C45.2549 50.4801 45.2296 50.4599 45.1998 50.4439C45.17 50.428 45.1362 50.4166 45.1005 50.4105C44.8793 50.3877 44.6028 50.6179 44.5171 50.7423C44.5088 50.7548 44.4176 50.9456 44.4231 50.9476Z" fill="#01BDE1"/>
<path d="M42.6036 54.9148C42.5151 54.7821 42.3934 54.5934 42.2635 54.359C42.2247 54.2927 42.186 54.2235 42.1473 54.1517C42.314 54.095 42.4687 54.0202 42.6063 53.9298C42.6616 53.8862 42.7036 53.8341 42.7294 53.7772C42.7551 53.7203 42.7641 53.6598 42.7556 53.6C42.7469 53.5734 42.7312 53.5483 42.7095 53.5263C42.6878 53.5042 42.6605 53.4856 42.6291 53.4715C42.5977 53.4575 42.5629 53.4482 42.5268 53.4442C42.4906 53.4403 42.4537 53.4418 42.4183 53.4486C42.2082 53.5026 42.0976 53.7929 42.1003 53.9422C42.1003 53.9422 42.1197 54.0646 42.1307 54.1205C42.1058 54.077 42.0837 54.0334 42.0588 53.9857C42.034 53.9381 41.9925 53.8468 41.9593 53.7784C41.9261 53.7099 41.9289 53.7037 41.9123 53.6685C41.8957 53.6332 41.8874 53.5938 41.8736 53.5565C41.8598 53.5191 41.8404 53.4424 41.8238 53.3843C41.9914 53.3486 42.1508 53.294 42.2966 53.2226C42.3603 53.1859 42.4126 53.1393 42.4499 53.0859C42.4871 53.0326 42.5084 52.9738 42.5123 52.9136C42.5092 52.8861 42.4988 52.8594 42.4818 52.835C42.4647 52.8106 42.4414 52.7889 42.4131 52.7714C42.3847 52.7538 42.352 52.7406 42.3168 52.7326C42.2817 52.7247 42.2447 52.722 42.2082 52.7249C41.9897 52.7539 41.821 53.0297 41.7934 53.177C41.7934 53.177 41.7934 53.2143 41.7934 53.2516C41.7796 53.1936 41.7657 53.1376 41.7547 53.0795C41.727 52.9157 41.7021 52.7477 41.6773 52.5797L41.6607 52.4739C41.8334 52.439 41.9977 52.3837 42.1473 52.3101C42.211 52.2734 42.2633 52.2268 42.3006 52.1734C42.3378 52.1201 42.3591 52.0613 42.363 52.0011C42.3599 51.9738 42.3496 51.9473 42.3327 51.923C42.3158 51.8988 42.2927 51.8772 42.2647 51.8597C42.2367 51.8421 42.2043 51.8289 42.1695 51.8208C42.1346 51.8127 42.0979 51.8098 42.0616 51.8124C41.8404 51.8414 41.6717 52.1152 41.6441 52.2645C41.6441 52.2645 41.6441 52.308 41.6441 52.3495C41.6275 52.2583 41.6109 52.167 41.5915 52.0778C41.5569 51.9238 41.5098 51.7714 41.4505 51.6216C41.6277 51.585 41.7965 51.5283 41.951 51.4536C42.0147 51.417 42.067 51.3703 42.1043 51.317C42.1415 51.2636 42.1628 51.2048 42.1667 51.1446C42.1636 51.1174 42.1533 51.0908 42.1364 51.0665C42.1195 51.0423 42.0964 51.0207 42.0684 51.0032C42.0404 50.9857 42.008 50.9724 41.9731 50.9643C41.9383 50.9562 41.9016 50.9534 41.8653 50.9559C41.6441 50.985 41.4754 51.2608 41.4478 51.408C41.4478 51.4184 41.4478 51.5552 41.4478 51.605C41.3814 51.4618 41.2991 51.3231 41.2017 51.1903C41.1189 51.0701 41.0266 50.9537 40.9252 50.8419C40.8312 50.7361 40.7344 50.6449 40.6487 50.564L40.5159 50.4458C40.5159 50.4458 40.4385 50.2508 40.433 50.2384C40.3528 50.1015 40.0929 49.8734 39.88 49.89C39.8432 49.893 39.8077 49.9018 39.7759 49.916C39.7442 49.9302 39.7168 49.9494 39.6959 49.9722C39.6749 49.9951 39.6607 50.021 39.6543 50.0484C39.6479 50.0757 39.6494 50.1037 39.6588 50.1305C39.6838 50.1878 39.7253 50.2404 39.7802 50.2844C39.8351 50.3285 39.9022 50.363 39.9767 50.3856C40.1486 50.4257 40.3276 50.446 40.5076 50.4458C40.5491 50.4831 40.5961 50.5246 40.6431 50.5702C40.7261 50.6531 40.8201 50.7444 40.9196 50.8522C40.9445 50.8792 40.9694 50.9103 40.9943 50.9414C40.939 50.8958 40.8616 50.8377 40.8533 50.8315C40.6984 50.7382 40.3251 50.6241 40.1371 50.7154C40.1081 50.732 40.0838 50.7528 40.0655 50.7766C40.0473 50.8004 40.0355 50.8266 40.0309 50.8538C40.0263 50.881 40.0289 50.9086 40.0386 50.935C40.0483 50.9614 40.0648 50.9862 40.0873 51.0078C40.1449 51.05 40.2141 51.0822 40.2901 51.1023C40.366 51.1223 40.4469 51.1297 40.527 51.1239C40.7052 51.0996 40.8776 51.0556 41.0385 50.9933C41.0911 51.0596 41.1464 51.128 41.1961 51.2006C41.2882 51.3335 41.3641 51.4723 41.4229 51.6154C41.4229 51.6154 41.4229 51.632 41.4229 51.6403C41.398 51.6154 41.2625 51.4847 41.2514 51.4764C41.1104 51.3686 40.7565 51.2255 40.5574 51.3002C40.5259 51.3144 40.4985 51.3332 40.4768 51.3555C40.4551 51.3778 40.4395 51.4031 40.431 51.4299C40.4225 51.4568 40.4213 51.4846 40.4273 51.5118C40.4333 51.539 40.4465 51.5651 40.4662 51.5884C40.5173 51.6345 40.581 51.6716 40.6531 51.6974C40.7252 51.7232 40.8038 51.7369 40.8837 51.7377C41.0732 51.729 41.2598 51.6982 41.4367 51.6465C41.4917 51.7921 41.5333 51.9404 41.5611 52.0903C41.5833 52.2002 41.5998 52.3122 41.6137 52.4262C41.5833 52.3931 41.4561 52.2707 41.445 52.2645C41.304 52.1567 40.9501 52.0136 40.751 52.0882C40.7195 52.1025 40.692 52.1213 40.6703 52.1435C40.6486 52.1658 40.6331 52.1911 40.6246 52.218C40.6161 52.2448 40.6148 52.2727 40.6208 52.2999C40.6269 52.3271 40.6401 52.3531 40.6597 52.3765C40.7111 52.4228 40.7753 52.4601 40.8479 52.4859C40.9205 52.5117 40.9997 52.5253 41.08 52.5258C41.264 52.516 41.4448 52.4852 41.6164 52.4345C41.6164 52.4864 41.6164 52.5382 41.6358 52.5901C41.6551 52.7581 41.6745 52.926 41.6994 53.094C41.6994 53.15 41.7187 53.206 41.7326 53.2641L41.586 53.1251C41.445 53.0194 41.0911 52.8742 40.892 52.9509C40.8608 52.9652 40.8338 52.9839 40.8123 53.006C40.7909 53.0281 40.7754 53.0532 40.767 53.0798C40.7585 53.1064 40.7571 53.134 40.7629 53.161C40.7687 53.188 40.7816 53.2138 40.8007 53.2371C40.8516 53.2835 40.9152 53.3211 40.9873 53.3472C41.0594 53.3733 41.1382 53.3874 41.2183 53.3885C41.3964 53.3791 41.5716 53.3497 41.7381 53.3014C41.7575 53.3947 41.7796 53.488 41.8072 53.5793C41.821 53.6187 41.8321 53.6581 41.8459 53.6954L41.8902 53.8074C41.9234 53.8821 41.9538 53.9526 41.987 54.0148C42.0008 54.05 42.0174 54.0832 42.034 54.1164C41.9952 54.0625 41.9317 53.9795 41.9261 53.9733C41.81 53.851 41.4865 53.6685 41.2763 53.7203C41.2424 53.7307 41.2115 53.7461 41.1855 53.7656C41.1596 53.7851 41.1391 53.8082 41.1252 53.8337C41.1113 53.8592 41.1043 53.8865 41.1046 53.914C41.1049 53.9415 41.1125 53.9687 41.127 53.994C41.1681 54.0459 41.2238 54.0903 41.2902 54.1244C41.3566 54.1584 41.4321 54.1811 41.5114 54.1911C41.6966 54.2022 41.883 54.1924 42.0644 54.162L42.186 54.4005C42.3132 54.6369 42.4294 54.8298 42.5151 54.9646C42.6008 55.0994 42.6506 55.172 42.6506 55.172C42.661 55.185 42.6776 55.1947 42.6971 55.1989C42.7166 55.2031 42.7375 55.2017 42.7556 55.1948C42.7738 55.1869 42.7872 55.1742 42.7934 55.1592C42.7995 55.1442 42.7979 55.128 42.7888 55.1139C42.7888 55.1139 42.6893 55.0455 42.6036 54.9148Z" fill="#01BDE1"/>
<path d="M41.0111 50.9455C41.1708 50.8727 41.316 50.7833 41.4425 50.6801C41.4905 50.632 41.524 50.5767 41.5407 50.518C41.5574 50.4593 41.5569 50.3986 41.5392 50.34C41.5266 50.3143 41.5074 50.2908 41.4826 50.2708C41.4578 50.2507 41.428 50.2345 41.3948 50.2232C41.3617 50.2118 41.3259 50.2055 41.2894 50.2045C41.253 50.2036 41.2167 50.208 41.1826 50.2176C40.9807 50.2902 40.906 50.5868 40.9392 50.7361C40.942 50.7485 41.0084 50.9455 41.0111 50.9455Z" fill="#01BDE1"/>
<path d="M20.8225 55.3938C20.8225 55.3938 19.0003 54.948 19.5202 55.2964C19.6114 55.3544 19.6833 55.398 19.7414 55.4291H25.1305L25.2936 55.1864L25.3324 55.1263L25.3987 55.0268L24.7517 54.697L25.4347 54.9708L25.6144 54.668L25.4761 53.6498L25.6973 54.5788L25.8301 54.33L26.4329 53.4714L25.4513 55.0848L26.8559 54.6701L25.3932 55.174L25.2218 55.4291H31.0505C31.3685 55.4042 31.8137 55.3358 31.8966 55.147C32.0266 54.8484 30.6607 54.8484 30.6607 54.8484C30.6607 54.8484 32.093 54.4026 31.5704 54.303C31.0478 54.2035 30.1381 54.6016 30.1381 54.6016C30.1381 54.6016 30.6607 53.7078 30.0081 53.9069C29.8375 53.9575 29.6829 54.0342 29.5539 54.132C29.4249 54.2298 29.3244 54.3467 29.2588 54.4751C29.3279 54.3009 29.4578 53.8882 29.0956 54.0065C28.8695 54.0919 28.6785 54.2216 28.5426 54.3818C28.7168 54.1164 28.8717 53.7223 28.1168 53.8571C28.1559 53.5118 28.0145 53.1687 27.7224 52.9001C27.4304 52.6316 27.0106 52.4587 26.5518 52.4179C24.8319 52.196 24.9231 53.9567 24.3397 54.303C23.7563 54.6493 23.0374 54.2532 22.7774 54.6514C22.6298 54.8293 22.561 55.0376 22.5811 55.2466C22.5811 55.2466 21.605 53.3117 21.4751 53.8571C21.4191 54.2207 21.5346 54.5876 21.8014 54.894C21.8014 54.894 20.2363 53.3574 20.5626 53.9525C20.7617 54.3128 21.0013 54.6597 21.2788 54.9894C21.2788 54.9894 19.1303 54.5933 19.4566 54.8401C19.7829 55.0869 20.8225 55.3938 20.8225 55.3938Z" fill="#01BDE1"/>
<path d="M29.7956 55.116C29.7817 55.0268 29.7568 54.9086 29.7209 54.7468C29.7209 54.7033 29.696 54.6556 29.6822 54.6079C29.5704 54.6211 29.4566 54.6211 29.3449 54.6079C29.2967 54.5998 29.2514 54.5839 29.2123 54.5613C29.1731 54.5387 29.141 54.51 29.1181 54.4772C29.109 54.4616 29.1045 54.4446 29.105 54.4275C29.1055 54.4104 29.1109 54.3935 29.1209 54.3782C29.1309 54.3628 29.1452 54.3492 29.1628 54.3384C29.1805 54.3276 29.2011 54.3198 29.2232 54.3155C29.3559 54.2885 29.5439 54.4088 29.6103 54.4855C29.6347 54.5178 29.6569 54.551 29.6767 54.5851L29.6518 54.498C29.6518 54.4544 29.6241 54.4109 29.6075 54.3673L29.5826 54.2989C29.5826 54.2761 29.5633 54.2533 29.5522 54.2304C29.5412 54.2076 29.519 54.1641 29.4997 54.1309C29.3968 54.1552 29.2896 54.1678 29.1817 54.1682C29.1322 54.1659 29.0839 54.1554 29.0405 54.1375C28.997 54.1195 28.9593 54.0946 28.9301 54.0645C28.9183 54.05 28.9108 54.0336 28.9081 54.0167C28.9054 53.9998 28.9075 53.9826 28.9143 53.9663C28.9211 53.95 28.9324 53.935 28.9475 53.9223C28.9626 53.9095 28.9812 53.8994 29.002 53.8924C29.1292 53.8509 29.3393 53.9484 29.4223 54.0168L29.4582 54.0542C29.4389 54.0231 29.4195 53.9899 29.3974 53.9588C29.3393 53.8675 29.2757 53.7742 29.2121 53.683L29.1707 53.6249C29.065 53.6499 28.9551 53.6632 28.8444 53.6643C28.795 53.6615 28.7469 53.6509 28.7035 53.633C28.6601 53.6151 28.6223 53.5904 28.5928 53.5606C28.5814 53.5459 28.5743 53.5297 28.5718 53.5128C28.5693 53.4959 28.5715 53.4789 28.5782 53.4627C28.585 53.4465 28.5962 53.4315 28.611 53.4188C28.6259 53.406 28.6442 53.3957 28.6646 53.3885C28.7918 53.347 29.002 53.4445 29.0849 53.5129C29.0849 53.5129 29.1043 53.5357 29.1264 53.5565C29.0905 53.5067 29.06 53.4548 29.0296 53.4051C28.976 53.3177 28.9308 53.2276 28.8941 53.1355C28.786 53.1619 28.6732 53.1759 28.5596 53.177C28.51 53.1749 28.4616 53.1645 28.418 53.1466C28.3745 53.1286 28.3369 53.1036 28.3079 53.0733C28.2961 53.0588 28.2884 53.0426 28.2855 53.0258C28.2826 53.0089 28.2845 52.9918 28.291 52.9756C28.2975 52.9593 28.3086 52.9443 28.3234 52.9314C28.3382 52.9186 28.3565 52.9083 28.3771 52.9011C28.5043 52.8597 28.7172 52.9571 28.7974 53.0256L28.8886 53.1251C28.8552 53.0342 28.833 52.9412 28.8223 52.8472C28.8223 52.758 28.8223 52.6751 28.8223 52.5963C28.8223 52.5175 28.8223 52.447 28.8388 52.3889C28.8554 52.3308 28.8388 52.3246 28.8554 52.2956C28.8554 52.2956 28.8057 52.1774 28.8029 52.1691C28.7835 52.0799 28.8029 51.8974 28.9356 51.8497C28.9559 51.8419 28.9782 51.8375 29.0009 51.8367C29.0237 51.8358 29.0464 51.8387 29.0676 51.8449C29.0888 51.8512 29.108 51.8608 29.1238 51.8731C29.1397 51.8853 29.1519 51.9 29.1596 51.9161C29.1722 51.9511 29.1746 51.9878 29.1665 52.0236C29.1583 52.0595 29.14 52.0935 29.1126 52.1235C29.0413 52.1879 28.9574 52.2438 28.8637 52.2894C28.8637 52.3184 28.8637 52.3516 28.8637 52.3868C28.8637 52.4221 28.8637 52.5216 28.8637 52.5942V52.6585C28.8637 52.6233 28.8886 52.5714 28.8886 52.5673C28.9273 52.4802 29.0683 52.3288 29.2038 52.3267C29.2268 52.3269 29.2494 52.3307 29.2702 52.3378C29.291 52.345 29.3096 52.3554 29.3248 52.3683C29.3399 52.3812 29.3512 52.3964 29.358 52.4128C29.3648 52.4292 29.3669 52.4465 29.3642 52.4636C29.3532 52.4996 29.3319 52.5335 29.3019 52.5629C29.2718 52.5922 29.2336 52.6163 29.19 52.6336C29.087 52.6665 28.9779 52.6875 28.8665 52.6958C28.8665 52.7435 28.8665 52.7933 28.8803 52.8431C28.894 52.9358 28.919 53.0275 28.955 53.1168C28.9541 53.1216 28.9541 53.1265 28.955 53.1313C28.955 53.1127 28.955 53.0111 28.9688 53.0028C28.9937 52.9136 29.1098 52.7518 29.2453 52.7394C29.2679 52.7379 29.2906 52.74 29.312 52.7455C29.3334 52.751 29.3531 52.7598 29.3697 52.7713C29.3864 52.7828 29.3996 52.7968 29.4087 52.8124C29.4177 52.828 29.4224 52.8448 29.4223 52.8617C29.4174 52.8984 29.4017 52.9338 29.3764 52.9653C29.351 52.9969 29.3166 53.0238 29.2757 53.0442C29.1753 53.0862 29.0672 53.1169 28.955 53.1355C28.9877 53.2261 29.0293 53.3149 29.0794 53.4009C29.1181 53.4631 29.1596 53.5233 29.2038 53.5855C29.2038 53.5606 29.2038 53.4673 29.2038 53.459C29.2287 53.3698 29.3448 53.2081 29.4803 53.1956C29.5029 53.1942 29.5256 53.1963 29.547 53.2018C29.5684 53.2073 29.5881 53.2161 29.6047 53.2276C29.6214 53.2391 29.6347 53.2531 29.6437 53.2686C29.6528 53.2842 29.6574 53.301 29.6573 53.318C29.6524 53.3546 29.6367 53.39 29.6114 53.4216C29.586 53.4531 29.5517 53.4801 29.5108 53.5005C29.4108 53.5427 29.3025 53.5728 29.19 53.5896L29.2508 53.6747C29.3172 53.7659 29.3836 53.8572 29.4472 53.9484C29.4693 53.9795 29.4886 54.0106 29.508 54.0417C29.508 54.0065 29.508 53.9401 29.508 53.936C29.5329 53.8447 29.6518 53.683 29.7845 53.6705C29.8071 53.6687 29.83 53.6706 29.8516 53.676C29.8733 53.6814 29.8931 53.6901 29.9098 53.7017C29.9266 53.7133 29.9398 53.7274 29.9487 53.7431C29.9576 53.7588 29.962 53.7758 29.9615 53.7929C29.9566 53.8295 29.9409 53.8649 29.9155 53.8965C29.8902 53.928 29.8558 53.955 29.8149 53.9754C29.7195 54.017 29.6159 54.0471 29.508 54.0645C29.5412 54.1164 29.5716 54.1703 29.5992 54.2222L29.6324 54.2927L29.6601 54.359C29.6767 54.4067 29.6932 54.4503 29.7071 54.4938C29.7209 54.5374 29.7071 54.5374 29.7292 54.5581C29.7292 54.5208 29.7292 54.4627 29.7292 54.4565C29.7292 54.3652 29.8177 54.191 29.9504 54.1641C29.9726 54.1598 29.9958 54.1592 30.0184 54.1621C30.041 54.165 30.0626 54.1715 30.0816 54.1811C30.1007 54.1906 30.1168 54.2032 30.129 54.2177C30.1411 54.2323 30.1491 54.2487 30.1523 54.2657C30.1568 54.3042 30.1494 54.3429 30.1307 54.3789C30.112 54.4148 30.0824 54.4471 30.0444 54.4731C29.9541 54.5249 29.8545 54.5668 29.7485 54.5975C29.7651 54.6494 29.7817 54.7012 29.7956 54.7489C29.837 54.9024 29.8647 55.0309 29.8813 55.1201C29.8979 55.2093 29.9089 55.2632 29.9089 55.2632C29.9091 55.2727 29.9047 55.2818 29.8966 55.2891C29.8885 55.2963 29.8771 55.3011 29.8647 55.3026C29.8583 55.3032 29.8518 55.3028 29.8456 55.3014C29.8395 55.3 29.8337 55.2977 29.8288 55.2946C29.8239 55.2915 29.8199 55.2876 29.817 55.2833C29.8141 55.279 29.8125 55.2743 29.8121 55.2694C29.8121 55.2694 29.8121 55.2051 29.7956 55.116Z" fill="#01BDE1"/>
<path d="M28.8025 52.6875C28.6871 52.6907 28.5716 52.6816 28.4596 52.6606C28.4131 52.6483 28.3707 52.6286 28.3354 52.6028C28.3001 52.577 28.2726 52.5458 28.255 52.5113C28.2489 52.4949 28.2474 52.4777 28.2508 52.4609C28.2542 52.444 28.2623 52.4279 28.2746 52.4136C28.2868 52.3993 28.303 52.3871 28.3221 52.3779C28.3411 52.3686 28.3625 52.3625 28.385 52.3599C28.5204 52.3454 28.6891 52.4802 28.7444 52.5673C28.7582 52.5714 28.8025 52.6875 28.8025 52.6875Z" fill="#01BDE1"/>
<path d="M29.9369 55.1139C29.9922 55.033 30.0668 54.9169 30.147 54.7758C30.1719 54.7344 30.194 54.6908 30.2189 54.6452C30.1181 54.6102 30.0249 54.5641 29.9424 54.5083C29.9073 54.4811 29.8809 54.4484 29.8651 54.4125C29.8493 54.3766 29.8445 54.3384 29.8511 54.3009C29.8556 54.2842 29.8646 54.2683 29.8777 54.2543C29.8908 54.2403 29.9077 54.2286 29.9272 54.2198C29.9468 54.211 29.9686 54.2054 29.9912 54.2033C30.0138 54.2012 30.0367 54.2027 30.0585 54.2076C30.1885 54.2408 30.2576 54.415 30.2576 54.5104C30.2576 54.5104 30.2576 54.5851 30.2383 54.6203L30.2797 54.5374C30.3018 54.4959 30.324 54.4523 30.3433 54.4109L30.371 54.3424C30.371 54.3196 30.3876 54.2968 30.3959 54.274C30.4042 54.2512 30.418 54.2055 30.4263 54.1703C30.3236 54.1478 30.2258 54.1143 30.1359 54.0708C30.0967 54.0484 30.0643 54.0199 30.041 53.9874C30.0176 53.9548 30.0038 53.9189 30.0005 53.882C30.0018 53.8649 30.0078 53.8482 30.0181 53.8329C30.0285 53.8176 30.043 53.804 30.0606 53.7931C30.0783 53.7822 30.0987 53.7742 30.1208 53.7695C30.1428 53.7648 30.1658 53.7636 30.1885 53.7659C30.324 53.7846 30.429 53.9525 30.4456 54.0417C30.4456 54.0417 30.4456 54.0645 30.4456 54.0873C30.4456 54.0542 30.4622 54.0189 30.4678 53.9837C30.4871 53.882 30.5009 53.7763 30.5175 53.6767V53.6124C30.411 53.5907 30.3094 53.5572 30.2161 53.5129C30.1771 53.4901 30.145 53.4612 30.1221 53.4283C30.0992 53.3954 30.086 53.3592 30.0834 53.3221C30.0847 53.305 30.0907 53.2884 30.1011 53.2732C30.1115 53.258 30.126 53.2446 30.1437 53.2338C30.1614 53.2231 30.1819 53.2152 30.2039 53.2108C30.2259 53.2063 30.2489 53.2054 30.2714 53.208C30.4069 53.2267 30.512 53.3926 30.5286 53.4839C30.5286 53.4839 30.5286 53.5108 30.5286 53.5357C30.5286 53.4797 30.5479 53.4258 30.5618 53.3698C30.5815 53.2758 30.6102 53.1829 30.6475 53.0919C30.5378 53.0693 30.4334 53.0344 30.3378 52.9882C30.2984 52.9661 30.2661 52.9377 30.2431 52.9051C30.2201 52.8724 30.2072 52.8364 30.2051 52.7995C30.206 52.7825 30.2117 52.7658 30.2217 52.7505C30.2318 52.7352 30.246 52.7216 30.2634 52.7107C30.2809 52.6998 30.3012 52.6917 30.323 52.687C30.3449 52.6823 30.3678 52.6811 30.3903 52.6834C30.5286 52.702 30.6309 52.87 30.6475 52.9613C30.6475 52.9613 30.6475 53.0504 30.6475 53.0815C30.6875 52.9925 30.7385 52.9064 30.7996 52.8244C30.8534 52.7529 30.9125 52.6837 30.9765 52.617C31.0346 52.5527 31.0954 52.4967 31.148 52.447L31.2309 52.3744C31.2309 52.3744 31.2779 52.2562 31.2807 52.2479C31.3305 52.1649 31.4908 52.0239 31.6291 52.0405C31.6516 52.0424 31.6734 52.0478 31.6929 52.0565C31.7125 52.0652 31.7293 52.0769 31.7424 52.0908C31.7555 52.1047 31.7644 52.1205 31.7687 52.1373C31.773 52.154 31.7726 52.1712 31.7673 52.1877C31.7521 52.223 31.7266 52.2552 31.6926 52.2822C31.6587 52.3091 31.6171 52.3299 31.571 52.3433C31.4644 52.3678 31.3535 52.3804 31.242 52.3806C31.2123 52.4049 31.1846 52.4305 31.159 52.4573C31.0994 52.5123 31.044 52.5698 30.9931 52.6295C30.9759 52.6466 30.9602 52.6646 30.9461 52.6834L31.0346 52.617C31.1286 52.5589 31.3609 52.4905 31.477 52.5465C31.4957 52.5561 31.5115 52.5685 31.5233 52.583C31.5351 52.5975 31.5427 52.6137 31.5456 52.6306C31.5485 52.6474 31.5466 52.6645 31.54 52.6808C31.5334 52.697 31.5223 52.712 31.5074 52.7248C31.471 52.751 31.4274 52.7709 31.3796 52.7831C31.3318 52.7953 31.2811 52.7995 31.2309 52.7954C31.12 52.7809 31.0127 52.7536 30.9129 52.7145C30.8798 52.756 30.8466 52.7974 30.8162 52.8431C30.7592 52.9255 30.712 53.0116 30.6751 53.1002C30.6751 53.1002 30.6751 53.1106 30.6751 53.1168L30.7802 53.0152C30.8659 52.9509 31.0871 52.8638 31.2088 52.9094C31.2288 52.9173 31.2464 52.9283 31.2604 52.9416C31.2743 52.9549 31.2844 52.9703 31.2899 52.9868C31.2954 53.0032 31.2961 53.0203 31.2922 53.037C31.2882 53.0537 31.2796 53.0696 31.2669 53.0836C31.235 53.1123 31.1953 53.1355 31.1505 53.1516C31.1056 53.1677 31.0567 53.1763 31.0069 53.1769C30.8924 53.1705 30.7797 53.1517 30.6724 53.1209C30.6387 53.2093 30.6138 53.2994 30.5977 53.3905C30.5839 53.459 30.5728 53.5274 30.5645 53.5979C30.5839 53.5772 30.6613 53.5025 30.6696 53.4984C30.7553 53.432 30.9738 53.3449 31.0982 53.3905C31.1184 53.3986 31.1361 53.4098 31.15 53.4233C31.164 53.4369 31.1739 53.4526 31.1792 53.4693C31.1844 53.486 31.1848 53.5033 31.1804 53.5201C31.176 53.537 31.1668 53.5529 31.1535 53.5668C31.1221 53.5952 31.0828 53.618 31.0384 53.6338C30.9939 53.6495 30.9455 53.6578 30.8963 53.6581C30.7824 53.653 30.6704 53.6341 30.5645 53.6021C30.5645 53.6353 30.5645 53.6664 30.5507 53.6975C30.5507 53.8012 30.5258 53.9048 30.512 54.0044C30.512 54.0396 30.4982 54.0749 30.4926 54.1102C30.5203 54.0811 30.5756 54.0293 30.5811 54.0251C30.6696 53.9608 30.888 53.8717 31.0097 53.9173C31.0301 53.9251 31.0481 53.9362 31.0623 53.9497C31.0766 53.9632 31.0868 53.9788 31.0923 53.9955C31.0978 54.0122 31.0985 54.0296 31.0942 54.0465C31.09 54.0634 31.081 54.0795 31.0678 54.0936C31.0358 54.122 30.996 54.1448 30.9512 54.1606C30.9063 54.1763 30.8574 54.1846 30.8079 54.1848C30.6981 54.1798 30.5899 54.1624 30.4871 54.133C30.4766 54.1902 30.4619 54.247 30.4429 54.303C30.4429 54.3258 30.429 54.3507 30.4207 54.3735L30.3931 54.442L30.335 54.5726C30.335 54.5954 30.3129 54.6141 30.3046 54.6348C30.3267 54.6016 30.3682 54.5519 30.371 54.5477C30.4429 54.4731 30.6475 54.3611 30.7747 54.3943C30.796 54.3999 30.8155 54.4088 30.8319 54.4205C30.8483 54.4321 30.8612 54.4462 30.8698 54.4619C30.8784 54.4776 30.8826 54.4944 30.8819 54.5113C30.8812 54.5283 30.8758 54.5449 30.8659 54.5602C30.8401 54.5918 30.8055 54.6189 30.7644 54.6397C30.7234 54.6604 30.6769 54.6743 30.6281 54.6805C30.5152 54.6864 30.4017 54.6808 30.2908 54.6639C30.2659 54.7136 30.241 54.7634 30.2161 54.809C30.1359 54.9542 30.0641 55.0724 30.0115 55.1553L29.9286 55.2839C29.926 55.2882 29.9222 55.2921 29.9175 55.2952C29.9127 55.2983 29.9072 55.3006 29.9011 55.302C29.8951 55.3034 29.8888 55.3037 29.8825 55.3031C29.8763 55.3025 29.8703 55.3009 29.865 55.2984C29.8591 55.2963 29.854 55.2932 29.8498 55.2895C29.8457 55.2858 29.8426 55.2814 29.8407 55.2767C29.8389 55.2721 29.8384 55.2672 29.8393 55.2623C29.8401 55.2575 29.8423 55.2528 29.8456 55.2487C29.8456 55.2487 29.8843 55.1948 29.9369 55.1139Z" fill="#01BDE1"/>
<path d="M30.9208 52.6855C30.8183 52.6423 30.7251 52.5878 30.6443 52.5237C30.6144 52.4946 30.5935 52.461 30.5829 52.4251C30.5724 52.3893 30.5726 52.3521 30.5835 52.3163C30.5905 52.3 30.6019 52.2849 30.6172 52.2721C30.6324 52.2593 30.6511 52.2491 30.6719 52.242C30.6928 52.235 30.7154 52.2313 30.7383 52.2313C30.7611 52.2312 30.7838 52.2347 30.8047 52.2417C30.9291 52.2852 30.9706 52.4677 30.954 52.559C30.9623 52.5714 30.9236 52.6875 30.9208 52.6855Z" fill="#01BDE1"/>
<path d="M23.5184 55.1595C23.5184 55.0911 23.4908 54.9957 23.4604 54.8816C23.4604 54.8484 23.4438 54.8132 23.4355 54.7779C23.3503 54.7877 23.2636 54.7877 23.1783 54.7779C23.1423 54.7722 23.1084 54.7604 23.0792 54.7436C23.05 54.7267 23.0263 54.7051 23.0097 54.6804C23.0027 54.6687 22.9992 54.6559 22.9994 54.6431C22.9996 54.6302 23.0035 54.6175 23.0109 54.6059C23.0182 54.5943 23.0288 54.584 23.042 54.5757C23.0552 54.5675 23.0705 54.5615 23.0871 54.5581C23.1866 54.5394 23.3304 54.6286 23.3802 54.6867L23.43 54.7613C23.43 54.7406 23.43 54.7178 23.4106 54.697C23.3913 54.6763 23.3885 54.6307 23.3774 54.5975L23.3581 54.5456C23.352 54.5288 23.3446 54.5121 23.336 54.4959C23.336 54.471 23.3111 54.4461 23.2972 54.4191C23.2196 54.4382 23.1384 54.448 23.0567 54.4482C23.0198 54.4464 22.9839 54.4386 22.9514 54.4254C22.9189 54.4121 22.8907 54.3937 22.8687 54.3714C22.8596 54.3605 22.8538 54.3482 22.8516 54.3354C22.8494 54.3226 22.8508 54.3096 22.8558 54.2973C22.8607 54.2849 22.8691 54.2735 22.8804 54.2638C22.8917 54.254 22.9056 54.2462 22.9212 54.2408C23.018 54.2097 23.1756 54.2823 23.2364 54.3341L23.2641 54.3632C23.251 54.3384 23.2362 54.3142 23.2198 54.2906C23.1756 54.2221 23.1286 54.1516 23.0788 54.0832L23.0512 54.0396C22.9717 54.0591 22.8886 54.0689 22.8051 54.0687C22.7677 54.0672 22.7312 54.0595 22.6982 54.0463C22.6653 54.033 22.6366 54.0145 22.6143 53.9919C22.6057 53.9809 22.6002 53.9686 22.5982 53.9559C22.5962 53.9432 22.5978 53.9303 22.6027 53.9181C22.6076 53.9058 22.6158 53.8944 22.6269 53.8847C22.6379 53.8749 22.6515 53.8669 22.6668 53.8613C22.7636 53.8302 22.924 53.9048 22.9848 53.9567L23.0152 53.9878C22.9903 53.9505 22.9654 53.9111 22.9433 53.8737C22.9029 53.8065 22.8687 53.7372 22.841 53.6664C22.7593 53.6848 22.6747 53.6952 22.5894 53.6975C22.5521 53.6947 22.516 53.6863 22.4832 53.6727C22.4504 53.6592 22.4216 53.6408 22.3986 53.6187C22.3901 53.6077 22.3846 53.5956 22.3827 53.5831C22.3807 53.5705 22.3822 53.5578 22.3872 53.5457C22.3921 53.5336 22.4004 53.5224 22.4114 53.5129C22.4224 53.5033 22.4359 53.4955 22.4511 53.4901C22.5479 53.459 22.7055 53.5316 22.7691 53.5834L22.8382 53.6581C22.8156 53.5898 22.7989 53.5205 22.7885 53.4507C22.7831 53.3878 22.7831 53.3248 22.7885 53.262C22.7885 53.2039 22.7885 53.15 22.7885 53.1023C22.7885 53.0546 22.7885 53.0546 22.7885 53.0318C22.7732 53.0005 22.7602 52.9687 22.7498 52.9364C22.7332 52.8679 22.7498 52.729 22.8465 52.6958C22.862 52.69 22.8789 52.6867 22.8962 52.6861C22.9135 52.6855 22.9308 52.6876 22.9469 52.6923C22.963 52.697 22.9777 52.7042 22.9899 52.7133C23.0022 52.7225 23.0117 52.7335 23.018 52.7456C23.0275 52.7724 23.029 52.8004 23.0223 52.8277C23.0156 52.8549 23.0009 52.8807 22.9793 52.9032C22.9271 52.9521 22.8645 52.9941 22.794 53.0276V53.1023C22.7896 53.1548 22.7896 53.2074 22.794 53.2599V53.3097C22.794 53.2806 22.8106 53.2433 22.8134 53.2412C22.841 53.1749 22.9461 53.0608 23.0512 53.0587C23.0683 53.0592 23.085 53.0623 23.1005 53.0679C23.1159 53.0735 23.1296 53.0814 23.1407 53.0911C23.1519 53.1009 23.1603 53.1122 23.1653 53.1245C23.1703 53.1367 23.172 53.1497 23.1701 53.1624C23.1609 53.1893 23.1447 53.2145 23.1224 53.2366C23.1001 53.2587 23.0721 53.2772 23.0401 53.291C22.9624 53.315 22.8804 53.3304 22.7968 53.3366C22.7929 53.3739 22.7929 53.4113 22.7968 53.4486C22.8051 53.5189 22.8227 53.5883 22.8493 53.656C22.8505 53.6601 22.8505 53.6643 22.8493 53.6684C22.8493 53.6539 22.8493 53.5772 22.8493 53.573C22.8687 53.5046 22.9544 53.3822 23.0594 53.3656C23.0763 53.3645 23.0933 53.366 23.1094 53.3701C23.1255 53.3741 23.1402 53.3807 23.1527 53.3893C23.1652 53.3978 23.1752 53.4083 23.182 53.4199C23.1888 53.4316 23.1922 53.4442 23.1922 53.4569C23.1888 53.4848 23.1771 53.5118 23.158 53.5358C23.1388 53.5599 23.1127 53.5804 23.0816 53.5958C23.0061 53.6267 22.9251 53.649 22.841 53.6622C22.8703 53.7285 22.9044 53.7936 22.9433 53.8571L23.0401 53.9961C23.0401 53.9774 23.0401 53.9069 23.0401 53.9007C23.0594 53.8343 23.1479 53.7099 23.2502 53.6933C23.2674 53.6921 23.2846 53.6937 23.3009 53.6979C23.3171 53.7021 23.332 53.7088 23.3446 53.7176C23.3571 53.7264 23.367 53.7371 23.3736 53.749C23.3802 53.7609 23.3834 53.7737 23.383 53.7866C23.3796 53.8142 23.3679 53.8409 23.3487 53.8646C23.3296 53.8884 23.3034 53.9085 23.2724 53.9235C23.1981 53.9546 23.1179 53.977 23.0346 53.9899C23.0476 54.0119 23.0624 54.0334 23.0788 54.0542C23.1286 54.1226 23.1783 54.191 23.2254 54.2615C23.2419 54.2843 23.2558 54.3092 23.2724 54.332C23.2724 54.3051 23.2724 54.2553 23.2724 54.2512C23.2917 54.1848 23.3774 54.0624 23.4825 54.0438C23.4996 54.0426 23.5169 54.0442 23.5331 54.0484C23.5494 54.0525 23.5643 54.0593 23.5768 54.0681C23.5894 54.0769 23.5993 54.0876 23.6059 54.0995C23.6125 54.1114 23.6157 54.1242 23.6152 54.1371C23.6113 54.1646 23.5993 54.1911 23.5802 54.2148C23.5611 54.2384 23.5353 54.2586 23.5046 54.274C23.4327 54.3057 23.3542 54.3281 23.2724 54.3403C23.2972 54.3797 23.3221 54.4212 23.3415 54.4606C23.351 54.4776 23.3593 54.4949 23.3664 54.5125L23.3885 54.5622C23.3885 54.5975 23.4134 54.6307 23.4244 54.6638C23.4304 54.6795 23.435 54.6954 23.4383 54.7115C23.4383 54.6846 23.4383 54.639 23.4383 54.6369C23.4383 54.5664 23.5046 54.4295 23.6042 54.415C23.6209 54.412 23.6383 54.4116 23.6553 54.4139C23.6722 54.4162 23.6884 54.4211 23.7027 54.4283C23.717 54.4355 23.7291 54.4449 23.7383 54.4558C23.7476 54.4667 23.7537 54.4789 23.7562 54.4917C23.7575 54.5196 23.7507 54.5474 23.7364 54.5731C23.7221 54.5989 23.7006 54.6221 23.6733 54.641C23.6062 54.6802 23.5316 54.7117 23.4521 54.7344C23.4521 54.7738 23.477 54.8111 23.4853 54.8484C23.5184 54.9625 23.5378 55.0558 23.5516 55.1263C23.5655 55.1968 23.571 55.2341 23.571 55.2341C23.5718 55.2415 23.5688 55.2489 23.5626 55.2546C23.5565 55.2604 23.5476 55.2642 23.5378 55.2653C23.5416 55.2655 23.5453 55.2662 23.5489 55.2673C23.5489 55.2673 23.5295 55.2259 23.5184 55.1595Z" fill="#01BDE1"/>
<path d="M22.7775 53.3325C22.6911 53.3353 22.6045 53.329 22.5204 53.3138C22.4859 53.3038 22.4544 53.2888 22.4278 53.2696C22.4013 53.2503 22.3801 53.2273 22.3655 53.2018C22.3611 53.1894 22.3601 53.1764 22.3628 53.1637C22.3655 53.1509 22.3718 53.1388 22.3812 53.128C22.3906 53.1173 22.4029 53.1081 22.4174 53.1012C22.4318 53.0942 22.4481 53.0896 22.4651 53.0877C22.5674 53.0753 22.6946 53.1769 22.7416 53.2391C22.7388 53.2454 22.7803 53.3325 22.7775 53.3325Z" fill="#01BDE1"/>
<path d="M23.6262 55.1574C23.6649 55.0973 23.723 55.0102 23.7838 54.9044C23.8004 54.8733 23.8198 54.8401 23.8364 54.8049C23.7591 54.779 23.6874 54.7448 23.6235 54.7033C23.5977 54.6834 23.5781 54.6596 23.5662 54.6334C23.5542 54.6072 23.5502 54.5794 23.5543 54.5519C23.5575 54.5393 23.5641 54.5273 23.5739 54.5168C23.5836 54.5062 23.5962 54.4973 23.6108 54.4907C23.6254 54.484 23.6417 54.4798 23.6586 54.4782C23.6756 54.4766 23.6928 54.4776 23.7092 54.4814C23.8087 54.5062 23.8612 54.641 23.8585 54.7095C23.8585 54.7095 23.8585 54.7655 23.8447 54.7924L23.8778 54.7302C23.8944 54.6991 23.9083 54.6659 23.9248 54.6327L23.9442 54.583C23.9519 54.566 23.9584 54.5487 23.9636 54.5311L23.9884 54.4523C23.9099 54.4363 23.8353 54.4111 23.7672 54.3777C23.7376 54.3612 23.7133 54.34 23.6961 54.3156C23.6789 54.2912 23.6692 54.2642 23.6677 54.2366C23.6683 54.2237 23.6725 54.211 23.6801 54.1993C23.6878 54.1877 23.6986 54.1774 23.7119 54.1692C23.7253 54.1609 23.7408 54.1549 23.7575 54.1515C23.7742 54.1482 23.7916 54.1475 23.8087 54.1495C23.911 54.162 23.9884 54.2885 24.0023 54.3569V54.3922C24.0023 54.3652 24.0161 54.3383 24.0189 54.3134C24.0354 54.2366 24.0465 54.1599 24.0576 54.0832C24.0589 54.0666 24.0589 54.05 24.0576 54.0334C23.9785 54.0168 23.903 53.9917 23.8336 53.9588C23.8038 53.9418 23.7793 53.9203 23.7616 53.8956C23.744 53.8709 23.7336 53.8436 23.7313 53.8157C23.7327 53.8029 23.7374 53.7905 23.7453 53.7792C23.7532 53.7679 23.7641 53.7578 23.7772 53.7497C23.7904 53.7416 23.8056 53.7355 23.8219 53.7319C23.8382 53.7283 23.8554 53.7271 23.8723 53.7286C23.9746 53.7431 24.0548 53.8696 24.0659 53.9359C24.0659 53.9359 24.0659 53.9546 24.0659 53.9753C24.0713 53.9329 24.0796 53.8907 24.0907 53.8488C24.1065 53.7788 24.1277 53.7096 24.1543 53.6415C24.0723 53.6246 23.9941 53.5987 23.9221 53.5647C23.8927 53.5477 23.8686 53.5261 23.8514 53.5014C23.8342 53.4767 23.8244 53.4495 23.8225 53.4216C23.8235 53.4089 23.828 53.3964 23.8358 53.385C23.8436 53.3736 23.8545 53.3636 23.8678 53.3556C23.8811 53.3475 23.8965 53.3417 23.913 53.3385C23.9295 53.3352 23.9467 53.3346 23.9636 53.3366C24.0659 53.3491 24.1433 53.4756 24.1571 53.544C24.1571 53.544 24.1571 53.6104 24.1571 53.6332C24.1871 53.5665 24.2251 53.5019 24.2705 53.4403C24.31 53.3843 24.3543 53.3302 24.4032 53.2786C24.4474 53.2309 24.4944 53.1894 24.5332 53.152L24.594 53.0961C24.594 53.0961 24.6299 53.0069 24.6327 53.0027C24.6714 52.9384 24.7931 52.8327 24.9092 52.841C24.9262 52.8427 24.9425 52.847 24.9572 52.8537C24.9718 52.8604 24.9845 52.8692 24.9944 52.8798C25.0042 52.8903 25.0111 52.9022 25.0145 52.9148C25.0179 52.9274 25.0179 52.9404 25.0143 52.953C25.001 52.9788 24.9809 53.0024 24.9553 53.0224C24.9297 53.0423 24.8989 53.0582 24.865 53.0691C24.7854 53.0878 24.7023 53.0969 24.6189 53.0961L24.5553 53.1541C24.5166 53.1915 24.4723 53.235 24.4309 53.2827L24.3949 53.3242L24.4613 53.2744C24.5332 53.2309 24.7074 53.179 24.7931 53.2205C24.8073 53.2276 24.8193 53.237 24.8284 53.2479C24.8375 53.2588 24.8434 53.271 24.8457 53.2837C24.8481 53.2964 24.8468 53.3094 24.842 53.3217C24.8373 53.3341 24.829 53.3455 24.818 53.3553C24.7913 53.375 24.7591 53.3901 24.7237 53.3994C24.6883 53.4087 24.6506 53.4121 24.6133 53.4092C24.5305 53.3981 24.4504 53.3779 24.3756 53.3491C24.3507 53.3802 24.3258 53.4113 24.3009 53.4465C24.2583 53.5083 24.2231 53.5729 24.1958 53.6394V53.6498L24.276 53.5751C24.3424 53.5253 24.5055 53.459 24.5995 53.4942C24.6146 53.5004 24.6278 53.5088 24.6382 53.5191C24.6486 53.5293 24.656 53.5411 24.66 53.5536C24.6639 53.5661 24.6642 53.5792 24.6609 53.5918C24.6577 53.6044 24.6509 53.6164 24.641 53.6269C24.6173 53.6482 24.5877 53.6654 24.5543 53.6772C24.5209 53.689 24.4844 53.6952 24.4474 53.6954C24.3613 53.6909 24.2765 53.6769 24.1958 53.6539C24.1701 53.7219 24.1507 53.7912 24.1378 53.8613L24.1129 54.0168C24.1373 53.9906 24.1641 53.9657 24.1931 53.9422C24.2567 53.8924 24.4226 53.826 24.5138 53.8613C24.5291 53.8672 24.5426 53.8756 24.5533 53.8857C24.564 53.8959 24.5717 53.9076 24.5758 53.9202C24.58 53.9327 24.5806 53.9458 24.5775 53.9585C24.5745 53.9713 24.5678 53.9834 24.558 53.994C24.5338 54.0153 24.5037 54.0325 24.4698 54.0443C24.436 54.0561 24.3991 54.0623 24.3617 54.0624C24.2767 54.057 24.193 54.043 24.1129 54.021V54.0915C24.1129 54.1682 24.0935 54.247 24.0824 54.3238C24.0824 54.3486 24.0825 54.3756 24.0686 54.4005L24.135 54.3383C24.2013 54.2885 24.3645 54.2221 24.4585 54.2574C24.4736 54.2635 24.4868 54.272 24.4972 54.2822C24.5076 54.2925 24.515 54.3042 24.5189 54.3168C24.5229 54.3293 24.5232 54.3423 24.5199 54.355C24.5167 54.3676 24.5099 54.3796 24.5 54.3901C24.4763 54.4114 24.4467 54.4285 24.4133 54.4403C24.3798 54.4522 24.3434 54.4584 24.3064 54.4585C24.2231 54.4547 24.1411 54.4414 24.0631 54.4191C24.0631 54.4627 24.0437 54.5042 24.0327 54.5477C24.0275 54.5653 24.0211 54.5826 24.0133 54.5996L23.994 54.6514L23.9497 54.7489C23.9497 54.7655 23.9331 54.7821 23.9276 54.7966C23.9442 54.7717 23.9746 54.7344 23.9774 54.7302C24.0327 54.6742 24.182 54.5913 24.2788 54.6141C24.295 54.6183 24.3099 54.6251 24.3224 54.634C24.335 54.6429 24.3448 54.6537 24.3513 54.6656C24.3579 54.6776 24.3609 54.6905 24.3604 54.7034C24.3598 54.7163 24.3555 54.729 24.3479 54.7406C24.3294 54.7645 24.3038 54.785 24.2731 54.8005C24.2425 54.8159 24.2075 54.8259 24.1709 54.8298C24.0858 54.8365 23.9998 54.8323 23.9165 54.8173L23.8585 54.9272C23.8004 55.0351 23.7451 55.1242 23.7064 55.1864C23.6677 55.2487 23.6428 55.2839 23.6428 55.2839C23.6381 55.2903 23.6304 55.2951 23.6212 55.2974C23.6119 55.2997 23.6019 55.2994 23.593 55.2964C23.5888 55.2946 23.5851 55.2923 23.5821 55.2895C23.5791 55.2866 23.5769 55.2834 23.5756 55.2799C23.5743 55.2764 23.5739 55.2728 23.5746 55.2692C23.5752 55.2656 23.5768 55.2621 23.5792 55.259C23.5792 55.259 23.5847 55.2196 23.6262 55.1574Z" fill="#01BDE1"/>
<path d="M24.3792 53.3325C24.3054 53.299 24.2384 53.2578 24.1801 53.2101C24.1573 53.1885 24.1412 53.1633 24.133 53.1364C24.1249 53.1094 24.1249 53.0815 24.1331 53.0546C24.1382 53.0423 24.1468 53.0309 24.1582 53.0213C24.1696 53.0117 24.1836 53.0039 24.1993 52.9986C24.2149 52.9933 24.2319 52.9906 24.2491 52.9906C24.2663 52.9906 24.2833 52.9933 24.299 52.9986C24.393 53.0318 24.4262 53.1686 24.4124 53.2371C24.3985 53.2412 24.3792 53.3325 24.3792 53.3325Z" fill="#01BDE1"/>
<path d="M49.2616 55.3109H1V56.7231H49.2616V55.3109Z" fill="#BDC6CB" stroke="#BDC6CB" stroke-linecap="round" stroke-linejoin="round"/>
<path d="M49.2611 55.3109H20.9883V56.7231H49.2611V55.3109Z" fill="white" stroke="#BDC6CB" stroke-linecap="round" stroke-linejoin="round"/>
<path d="M23.6289 56.186V55.3607" stroke="#BDC6CB" stroke-width="0.75" stroke-linecap="round" stroke-linejoin="round"/>
<path d="M24.3486 55.3607V55.8065" stroke="#BDC6CB" stroke-width="0.75" stroke-linecap="round" stroke-linejoin="round"/>
<path d="M25.0674 55.3607V55.8065" stroke="#BDC6CB" stroke-width="0.75" stroke-linecap="round" stroke-linejoin="round"/>
<path d="M25.7861 55.3607V56.5054" stroke="#BDC6CB" stroke-width="0.75" stroke-linecap="round" stroke-linejoin="round"/>
<path d="M26.6484 55.3607V55.8957" stroke="#BDC6CB" stroke-width="0.75" stroke-linecap="round" stroke-linejoin="round"/>
<path d="M43.7676 55.3607V56.186" stroke="#BDC6CB" stroke-width="0.75" stroke-linecap="round" stroke-linejoin="round"/>
<path d="M44.4863 55.3607V55.8065" stroke="#BDC6CB" stroke-width="0.75" stroke-linecap="round" stroke-linejoin="round"/>
<path d="M45.2051 55.3607V55.8065" stroke="#BDC6CB" stroke-width="0.75" stroke-linecap="round" stroke-linejoin="round"/>
<path d="M45.9268 55.3607V56.5054" stroke="#BDC6CB" stroke-width="0.75" stroke-linecap="round" stroke-linejoin="round"/>
<path d="M46.79 55.3607V55.8957" stroke="#BDC6CB" stroke-width="0.75" stroke-linecap="round" stroke-linejoin="round"/>
</svg>
