<svg width="62" height="62" viewBox="0 0 62 62" fill="none" xmlns="http://www.w3.org/2000/svg">
<path d="M56.8333 31H12.9166V16.5596C12.9075 15.6293 13.153 14.7142 13.6266 13.9134C14.1001 13.1125 14.7837 12.4564 15.6033 12.0161C16.5095 11.5249 17.5423 11.3169 18.568 11.4188C18.0459 13 17.9717 14.6948 18.3537 16.3155C18.7357 17.9362 19.5589 19.4195 20.7321 20.6011L23.4719 23.3409C23.7118 23.5808 23.9965 23.7711 24.3099 23.901C24.6233 24.0308 24.9592 24.0977 25.2984 24.0977C25.6377 24.0977 25.9736 24.0308 26.287 23.901C26.6004 23.7711 26.8851 23.5808 27.1249 23.3409L36.2574 14.2084C36.4974 13.9686 36.6877 13.6838 36.8175 13.3704C36.9474 13.057 37.0142 12.7211 37.0142 12.3819C37.0142 12.0426 36.9474 11.7067 36.8175 11.3933C36.6877 11.0799 36.4974 10.7952 36.2574 10.5554L33.5177 7.81563C31.9928 6.29759 29.9758 5.37423 27.8302 5.21199C25.6847 5.04974 23.5517 5.65929 21.8159 6.93076C20.2508 6.31951 18.5601 6.09988 16.8908 6.29097C15.2215 6.48205 13.6242 7.07806 12.2377 8.02716C10.8513 8.97626 9.71767 10.2497 8.93553 11.7368C8.15339 13.2238 7.74639 14.8794 7.74992 16.5596V31H5.16659C4.48144 31 3.82436 31.2722 3.33989 31.7567C2.85542 32.2411 2.58325 32.8982 2.58325 33.5834C2.58325 34.2685 2.85542 34.9256 3.33989 35.4101C3.82436 35.8945 4.48144 36.1667 5.16659 36.1667H7.74992V43.9167C7.75484 45.5142 8.25412 47.071 9.1792 48.3733C10.1043 49.6757 11.4098 50.6598 12.9166 51.1905V54.25C12.9166 54.9352 13.1888 55.5923 13.6732 56.0767C14.1577 56.5612 14.8148 56.8334 15.4999 56.8334C16.1851 56.8334 16.8421 56.5612 17.3266 56.0767C17.8111 55.5923 18.0833 54.9352 18.0833 54.25V51.6667H43.9166V54.25C43.9166 54.9352 44.1888 55.5923 44.6732 56.0767C45.1577 56.5612 45.8148 56.8334 46.4999 56.8334C47.1851 56.8334 47.8421 56.5612 48.3266 56.0767C48.8111 55.5923 49.0833 54.9352 49.0833 54.25V51.1907C50.59 50.6599 51.8956 49.6758 52.8206 48.3734C53.7457 47.071 54.245 45.5142 54.2499 43.9167V36.1667H56.8333C57.5184 36.1667 58.1755 35.8945 58.66 35.4101C59.1444 34.9256 59.4166 34.2685 59.4166 33.5834C59.4166 32.8982 59.1444 32.2411 58.66 31.7567C58.1755 31.2722 57.5184 31 56.8333 31ZM24.3852 11.4686C25.1125 10.7432 26.0977 10.3359 27.1249 10.3359C28.1521 10.3359 29.1374 10.7432 29.8647 11.4686L30.7779 12.3819L25.2985 17.8614L24.3852 16.9481C23.6595 16.221 23.2519 15.2357 23.2518 14.2084C23.2518 13.1811 23.6594 12.1957 24.3852 11.4686ZM49.0833 43.9167C49.0828 44.6017 48.8105 45.2585 48.3261 45.7429C47.8417 46.2273 47.1849 46.4996 46.4999 46.5H15.4999C14.8149 46.4996 14.1581 46.2273 13.6737 45.7429C13.1894 45.2585 12.917 44.6017 12.9166 43.9167V36.1667H49.0833V43.9167Z" fill="#A6D6F6"/>
</svg>
