<svg width="62" height="62" viewBox="0 0 62 62" fill="none" xmlns="http://www.w3.org/2000/svg">
<path d="M46.5 31.3875V7.75002C46.5 7.06488 46.2278 6.4078 45.7434 5.92333C45.2589 5.43886 44.6018 5.16669 43.9167 5.16669C43.2315 5.16669 42.5744 5.43886 42.09 5.92333C41.6055 6.4078 41.3333 7.06488 41.3333 7.75002V31.3875C39.0961 32.0371 37.1305 33.3962 35.7327 35.2599C34.3349 37.1237 33.5805 39.3912 33.5833 41.7209C33.5833 47.0167 37.51 56.7042 43.9167 56.7042C50.3233 56.7042 54.25 47.0167 54.25 41.7209C54.2528 39.3912 53.4985 37.1237 52.1007 35.2599C50.7029 33.3962 48.7373 32.0371 46.5 31.3875ZM43.9167 51.6667C41.85 51.6667 38.75 45.8025 38.75 41.85C38.6867 40.4126 39.1944 39.0084 40.1623 37.9438C41.1301 36.8791 42.4797 36.2403 43.9167 36.1667C45.3536 36.2403 46.7032 36.8791 47.6711 37.9438C48.6389 39.0084 49.1466 40.4126 49.0833 41.85C49.0833 45.8025 45.9833 51.6667 43.9167 51.6667ZM25.8333 5.16669C25.1482 5.16669 24.4911 5.43886 24.0066 5.92333C23.5222 6.4078 23.25 7.06488 23.25 7.75002V21.855L20.6667 23.5859V7.75002C20.6667 7.06488 20.3945 6.4078 19.91 5.92333C19.4256 5.43886 18.7685 5.16669 18.0833 5.16669C17.3982 5.16669 16.7411 5.43886 16.2566 5.92333C15.7722 6.4078 15.5 7.06488 15.5 7.75002V23.5859L12.9167 21.855V7.75002C12.9167 7.06488 12.6445 6.4078 12.16 5.92333C11.6756 5.43886 11.0185 5.16669 10.3333 5.16669C9.64819 5.16669 8.99111 5.43886 8.50664 5.92333C8.02217 6.4078 7.75 7.06488 7.75 7.75002V23.25C7.7522 23.6755 7.85947 24.0939 8.06227 24.4679C8.26508 24.842 8.55713 25.1602 8.9125 25.3942L15.5 29.8117V54.25C15.5 54.9352 15.7722 55.5922 16.2566 56.0767C16.7411 56.5612 17.3982 56.8334 18.0833 56.8334C18.7685 56.8334 19.4256 56.5612 19.91 56.0767C20.3945 55.5922 20.6667 54.9352 20.6667 54.25V29.8117L27.2542 25.3942C27.6095 25.1602 27.9016 24.842 28.1044 24.4679C28.3072 24.0939 28.4145 23.6755 28.4167 23.25V7.75002C28.4167 7.06488 28.1445 6.4078 27.66 5.92333C27.1756 5.43886 26.5185 5.16669 25.8333 5.16669Z" fill="#A6D6F6"/>
</svg>
