<svg width="62" height="62" viewBox="0 0 62 62" fill="none" xmlns="http://www.w3.org/2000/svg">
<path d="M23.2501 43.9167H33.5834C37.0091 43.9167 40.2945 42.5558 42.7169 40.1335C45.1392 37.7111 46.5001 34.4257 46.5001 31V28.4167H49.0834C51.1388 28.4167 53.1101 27.6002 54.5635 26.1467C56.0169 24.6933 56.8334 22.7221 56.8334 20.6667C56.8334 18.6112 56.0169 16.64 54.5635 15.1866C53.1101 13.7332 51.1388 12.9167 49.0834 12.9167H46.5001V10.3333C46.5001 9.64819 46.2279 8.99111 45.7434 8.50664C45.259 8.02217 44.6019 7.75 43.9167 7.75H12.9167C12.2316 7.75 11.5745 8.02217 11.0901 8.50664C10.6056 8.99111 10.3334 9.64819 10.3334 10.3333V31C10.3334 34.4257 11.6943 37.7111 14.1166 40.1335C16.539 42.5558 19.8244 43.9167 23.2501 43.9167ZM46.5001 18.0833H49.0834C49.7686 18.0833 50.4256 18.3555 50.9101 18.84C51.3946 19.3244 51.6667 19.9815 51.6667 20.6667C51.6667 21.3518 51.3946 22.0089 50.9101 22.4934C50.4256 22.9778 49.7686 23.25 49.0834 23.25H46.5001V18.0833ZM15.5001 12.9167H41.3334V31C41.3334 33.0554 40.5169 35.0267 39.0635 36.4801C37.6101 37.9335 35.6388 38.75 33.5834 38.75H23.2501C21.1947 38.75 19.2234 37.9335 17.77 36.4801C16.3166 35.0267 15.5001 33.0554 15.5001 31V12.9167ZM54.2501 49.0833H7.75008C7.06494 49.0833 6.40786 49.3555 5.92339 49.84C5.43892 50.3244 5.16675 50.9815 5.16675 51.6667C5.16675 52.3518 5.43892 53.0089 5.92339 53.4934C6.40786 53.9778 7.06494 54.25 7.75008 54.25H54.2501C54.9352 54.25 55.5923 53.9778 56.0768 53.4934C56.5612 53.0089 56.8334 52.3518 56.8334 51.6667C56.8334 50.9815 56.5612 50.3244 56.0768 49.84C55.5923 49.3555 54.9352 49.0833 54.2501 49.0833Z" fill="#A6D6F6"/>
</svg>
