<svg width="62" height="62" viewBox="0 0 62 62" fill="none" xmlns="http://www.w3.org/2000/svg">
<path d="M45.1566 16.9208L37.8199 9.58414C37.5798 9.34201 37.294 9.14982 36.9792 9.01867C36.6644 8.88752 36.3268 8.81999 35.9857 8.81999C35.6447 8.81999 35.3071 8.88752 34.9923 9.01867C34.6774 9.14982 34.3917 9.34201 34.1516 9.58414C33.6704 10.0682 33.4004 10.7229 33.4004 11.4054C33.4004 12.0879 33.6704 12.7426 34.1516 13.2266L39.6282 18.7033L18.7032 39.6283L13.2266 34.1516C12.7426 33.6705 12.0878 33.4004 11.4053 33.4004C10.7228 33.4004 10.0681 33.6705 9.58408 34.1516C9.34194 34.3918 9.14976 34.6775 9.01861 34.9923C8.88745 35.3071 8.81993 35.6448 8.81993 35.9858C8.81993 36.3268 8.88745 36.6645 9.01861 36.9793C9.14976 37.2941 9.34194 37.5798 9.58408 37.82L16.8432 45.0791L24.1024 52.3383C24.3417 52.5824 24.627 52.7766 24.9418 52.9096C25.2567 53.0427 25.5948 53.1119 25.9366 53.1133C26.4497 53.1163 26.9521 52.9664 27.3797 52.6827C27.8073 52.3991 28.1407 51.9945 28.3374 51.5206C28.5342 51.0467 28.5854 50.525 28.4845 50.0219C28.3835 49.5188 28.1351 49.0571 27.7707 48.6958L22.3716 43.2966L43.2966 22.3716L48.7732 27.8483C49.0141 28.0875 49.2997 28.2769 49.6138 28.4056C49.9278 28.5344 50.2642 28.6001 50.6036 28.5989C50.9431 28.5977 51.2789 28.5297 51.5921 28.3987C51.9052 28.2677 52.1895 28.0763 52.4287 27.8354C52.6678 27.5945 52.8572 27.3089 52.986 26.9948C53.1148 26.6808 53.1805 26.3444 53.1793 26.005C53.1781 25.6656 53.11 25.3297 52.979 25.0165C52.848 24.7034 52.6566 24.4191 52.4157 24.18L45.1566 16.9208ZM9.58408 45.105C9.09762 44.6185 8.43786 44.3452 7.74991 44.3452C7.06196 44.3452 6.40219 44.6185 5.91574 45.105C5.42929 45.5914 5.15601 46.2512 5.15601 46.9391C5.15601 47.6271 5.42929 48.2868 5.91574 48.7733L13.2266 56.0841C13.468 56.3236 13.7542 56.513 14.069 56.6415C14.3837 56.7701 14.7208 56.8353 15.0607 56.8333C15.4007 56.8353 15.7378 56.7701 16.0525 56.6415C16.3672 56.513 16.6535 56.3236 16.8949 56.0841C17.137 55.844 17.3292 55.5583 17.4604 55.2435C17.5915 54.9287 17.6591 54.591 17.6591 54.25C17.6591 53.9089 17.5915 53.5713 17.4604 53.2565C17.3292 52.9417 17.137 52.656 16.8949 52.4158L9.58408 45.105ZM56.0841 13.2266L48.7732 5.9158C48.5324 5.67494 48.2464 5.48387 47.9317 5.35352C47.617 5.22316 47.2797 5.15607 46.9391 5.15607C46.5984 5.15607 46.2611 5.22316 45.9464 5.35352C45.6317 5.48387 45.3458 5.67494 45.1049 5.9158C44.864 6.15667 44.673 6.44262 44.5426 6.75733C44.4123 7.07203 44.3452 7.40933 44.3452 7.74997C44.3452 8.09061 44.4123 8.42791 44.5426 8.74261C44.673 9.05732 44.864 9.34327 45.1049 9.58414L52.4157 16.895C52.6559 17.1371 52.9416 17.3293 53.2564 17.4604C53.5712 17.5916 53.9089 17.6591 54.2499 17.6591C54.5909 17.6591 54.9286 17.5916 55.2434 17.4604C55.5582 17.3293 55.8439 17.1371 56.0841 16.895C56.3262 16.6548 56.5184 16.3691 56.6495 16.0543C56.7807 15.7395 56.8482 15.4018 56.8482 15.0608C56.8482 14.7198 56.7807 14.3821 56.6495 14.0673C56.5184 13.7525 56.3262 13.4668 56.0841 13.2266Z" fill="#A6D6F6"/>
</svg>
