<svg width="62" height="62" viewBox="0 0 62 62" fill="none" xmlns="http://www.w3.org/2000/svg">
<path d="M33.5834 18.0834H25.8334C25.1483 18.0834 24.4912 18.3555 24.0067 18.84C23.5223 19.3245 23.2501 19.9815 23.2501 20.6667V41.3334C23.2501 42.0185 23.5223 42.6756 24.0067 43.16C24.4912 43.6445 25.1483 43.9167 25.8334 43.9167C26.5186 43.9167 27.1756 43.6445 27.6601 43.16C28.1446 42.6756 28.4168 42.0185 28.4168 41.3334V36.1667H33.5834C35.6389 36.1667 37.6101 35.3502 39.0635 33.8968C40.5169 32.4434 41.3334 30.4721 41.3334 28.4167V25.8334C41.3334 23.7779 40.5169 21.8067 39.0635 20.3533C37.6101 18.8999 35.6389 18.0834 33.5834 18.0834ZM36.1668 28.4167C36.1668 29.1018 35.8946 29.7589 35.4101 30.2434C34.9256 30.7278 34.2686 31 33.5834 31H28.4168V23.25H33.5834C34.2686 23.25 34.9256 23.5222 35.4101 24.0067C35.8946 24.4911 36.1668 25.1482 36.1668 25.8334V28.4167ZM31.0001 5.16669C25.8907 5.16669 20.8961 6.68179 16.6479 9.52039C12.3996 12.359 9.08847 16.3936 7.13321 21.114C5.17794 25.8345 4.66636 31.0287 5.66314 36.0399C6.65992 41.051 9.12031 45.6541 12.7332 49.2669C16.346 52.8798 20.9491 55.3402 25.9603 56.337C30.9714 57.3338 36.1657 56.8222 40.8861 54.8669C45.6065 52.9116 49.6411 49.6005 52.4797 45.3522C55.3183 41.104 56.8334 36.1094 56.8334 31C56.8334 27.6075 56.1652 24.2483 54.867 21.114C53.5687 17.9798 51.6659 15.1319 49.267 12.7331C46.8682 10.3342 44.0203 8.43138 40.8861 7.13313C37.7518 5.83489 34.3926 5.16669 31.0001 5.16669ZM31.0001 51.6667C26.9126 51.6667 22.9169 50.4546 19.5183 48.1837C16.1197 45.9128 13.4708 42.6852 11.9066 38.9088C10.3424 35.1325 9.9331 30.9771 10.7305 26.9682C11.528 22.9592 13.4963 19.2768 16.3866 16.3865C19.2768 13.4962 22.9593 11.5279 26.9682 10.7305C30.9772 9.93303 35.1325 10.3423 38.9089 11.9065C42.6852 13.4707 45.9129 16.1196 48.1838 19.5182C50.4547 22.9169 51.6668 26.9125 51.6668 31C51.6668 36.4812 49.4894 41.7378 45.6136 45.6136C41.7379 49.4893 36.4812 51.6667 31.0001 51.6667Z" fill="#A6D6F6"/>
</svg>
