<svg width="62" height="62" viewBox="0 0 62 62" fill="none" xmlns="http://www.w3.org/2000/svg">
<path d="M56.8333 51.6666H54.2499V20.6666H56.8333C57.5184 20.6666 58.1755 20.3945 58.66 19.91C59.1444 19.4255 59.4166 18.7684 59.4166 18.0833C59.4166 17.3981 59.1444 16.7411 58.66 16.2566C58.1755 15.7721 57.5184 15.5 56.8333 15.5H54.2499V7.74996C54.2499 7.06482 53.9778 6.40774 53.4933 5.92327C53.0088 5.4388 52.3517 5.16663 51.6666 5.16663H10.3333C9.64811 5.16663 8.99103 5.4388 8.50656 5.92327C8.02209 6.40774 7.74992 7.06482 7.74992 7.74996V15.5H5.16659C4.48144 15.5 3.82436 15.7721 3.33989 16.2566C2.85542 16.7411 2.58325 17.3981 2.58325 18.0833C2.58325 18.7684 2.85542 19.4255 3.33989 19.91C3.82436 20.3945 4.48144 20.6666 5.16659 20.6666H7.74992V51.6666H5.16659C4.48144 51.6666 3.82436 51.9388 3.33989 52.4233C2.85542 52.9077 2.58325 53.5648 2.58325 54.25C2.58325 54.9351 2.85542 55.5922 3.33989 56.0767C3.82436 56.5611 4.48144 56.8333 5.16659 56.8333H56.8333C57.5184 56.8333 58.1755 56.5611 58.66 56.0767C59.1444 55.5922 59.4166 54.9351 59.4166 54.25C59.4166 53.5648 59.1444 52.9077 58.66 52.4233C58.1755 51.9388 57.5184 51.6666 56.8333 51.6666ZM38.7499 51.6666H23.2499V42.5475C23.2437 39.7787 23.9542 37.0554 25.3122 34.6426C26.6703 32.2298 28.6297 30.2095 30.9999 28.7783C33.3701 30.2095 35.3295 32.2298 36.6876 34.6426C38.0457 37.0554 38.7562 39.7787 38.7499 42.5475V51.6666ZM49.0833 51.6666H43.9166V42.5475C43.9339 38.5956 42.8413 34.7183 40.7633 31.3569C38.6852 27.9956 35.7052 25.2851 32.1624 23.5341C31.8018 23.3524 31.4037 23.2578 30.9999 23.2578C30.5961 23.2578 30.198 23.3524 29.8374 23.5341C26.2946 25.2851 23.3146 27.9956 21.2366 31.3569C19.1585 34.7183 18.066 38.5956 18.0833 42.5475V51.6666H12.9166V20.6666H49.0833V51.6666ZM49.0833 15.5H12.9166V10.3333H49.0833V15.5Z" fill="#A6D6F6"/>
</svg>
