<svg width="62" height="62" viewBox="0 0 62 62" fill="none" xmlns="http://www.w3.org/2000/svg">
<path d="M43.9167 23.9733C44.9385 23.9733 45.9375 23.6703 46.7871 23.1026C47.6368 22.5349 48.299 21.728 48.69 20.7839C49.0811 19.8398 49.1834 18.801 48.9841 17.7987C48.7847 16.7965 48.2926 15.8759 47.57 15.1533C46.8475 14.4307 45.9269 13.9386 44.9246 13.7393C43.9224 13.5399 42.8835 13.6423 41.9395 14.0333C40.9954 14.4244 40.1885 15.0866 39.6207 15.9362C39.053 16.7859 38.75 17.7848 38.75 18.8067C38.75 20.177 39.2943 21.4911 40.2633 22.4601C41.2322 23.429 42.5464 23.9733 43.9167 23.9733ZM7.00083 35.96C7.51272 36.1237 8.00621 36.3401 8.47333 36.6059C10.08 37.5457 11.9078 38.041 13.7692 38.041C15.6305 38.041 17.4583 37.5457 19.065 36.6059C20.0753 36.0402 21.2138 35.7431 22.3717 35.7431C23.5295 35.7431 24.668 36.0402 25.6783 36.6059L26.2208 36.8642C27.7884 37.6273 29.5188 37.9957 31.2613 37.9371C33.0037 37.8786 34.7055 37.395 36.2183 36.5284C37.2286 35.9627 38.3671 35.6656 39.525 35.6656C40.6829 35.6656 41.8214 35.9627 42.8317 36.5284C44.4688 37.464 46.3194 37.9622 48.205 37.975C50.0245 37.9561 51.8069 37.4571 53.3717 36.5284C53.8388 36.2626 54.3323 36.0462 54.8442 35.8825C55.226 35.8562 55.5972 35.7454 55.931 35.5581C56.2647 35.3708 56.5527 35.1117 56.7741 34.7995C56.9954 34.4873 57.1447 34.1298 57.211 33.7529C57.2773 33.376 57.259 32.989 57.1575 32.62C57.056 32.251 56.8737 31.9091 56.6239 31.6192C56.3741 31.3292 56.063 31.0984 55.7131 30.9434C55.3632 30.7883 54.9832 30.713 54.6006 30.7228C54.218 30.7326 53.8424 30.8273 53.5008 31C52.5994 31.2798 51.7327 31.6611 50.9175 32.1367C50.0928 32.6128 49.1573 32.8635 48.205 32.8635C47.2527 32.8635 46.3172 32.6128 45.4925 32.1367C43.7029 31.1271 41.683 30.5967 39.6283 30.5967C37.5736 30.5967 35.5537 31.1271 33.7642 32.1367C33.5211 32.2555 33.2709 32.359 33.015 32.4467L37.045 28.4167C37.1373 28.297 37.2154 28.167 37.2775 28.0292C37.3944 27.9021 37.4982 27.7636 37.5875 27.6158C37.5996 27.4525 37.5996 27.2884 37.5875 27.125C37.6022 26.9617 37.6022 26.7975 37.5875 26.6342C37.5999 26.4794 37.5999 26.3239 37.5875 26.1692C37.6022 26.0059 37.6022 25.8416 37.5875 25.6783C37.511 25.5265 37.4247 25.3798 37.3292 25.2392C37.2621 25.0904 37.1752 24.9513 37.0708 24.8258L29.14 16.2234C28.9313 15.9959 28.687 15.8039 28.4167 15.655C28.2366 15.6312 28.0542 15.6312 27.8742 15.655C27.7287 15.6314 27.5804 15.6314 27.435 15.655C27.0911 15.5166 26.7189 15.4635 26.35 15.5L17.205 18.91C16.5611 19.1432 16.0362 19.6225 15.7455 20.2425C15.4549 20.8626 15.4223 21.5726 15.655 22.2167C15.8882 22.8605 16.3674 23.3855 16.9875 23.6761C17.6075 23.9668 18.3176 23.9993 18.9617 23.7667L26.5308 21.0025L31.6975 26.4792L26.7892 31.3875C25.1446 30.7482 23.3788 30.4815 21.6188 30.6066C19.8588 30.7317 18.1484 31.2454 16.6108 32.1108C15.7861 32.587 14.8506 32.8377 13.8983 32.8377C12.946 32.8377 12.0105 32.587 11.1858 32.1108C10.3706 31.6353 9.5039 31.2539 8.60249 30.9742C8.27196 30.8509 7.91966 30.7965 7.56733 30.8146C7.215 30.8326 6.8701 30.9226 6.55389 31.0791C6.23768 31.2355 5.95687 31.4551 5.72876 31.7242C5.50065 31.9933 5.33008 32.3063 5.22758 32.6439C5.12507 32.9815 5.09279 33.3365 5.13273 33.687C5.17267 34.0375 5.28398 34.3762 5.45981 34.682C5.63563 34.9879 5.87224 35.2545 6.15505 35.4654C6.43785 35.6763 6.76086 35.8271 7.10416 35.9083L7.00083 35.96ZM53.5008 43.9425C52.5994 44.2223 51.7327 44.6036 50.9175 45.0792C50.0928 45.5553 49.1573 45.806 48.205 45.806C47.2527 45.806 46.3172 45.5553 45.4925 45.0792C43.7029 44.0696 41.683 43.5392 39.6283 43.5392C37.5736 43.5392 35.5537 44.0696 33.7642 45.0792C32.9325 45.5624 31.9877 45.8169 31.0258 45.8169C30.0639 45.8169 29.1192 45.5624 28.2875 45.0792C26.4979 44.0696 24.478 43.5392 22.4233 43.5392C20.3686 43.5392 18.3487 44.0696 16.5592 45.0792C15.7345 45.5553 14.7989 45.806 13.8467 45.806C12.8944 45.806 11.9589 45.5553 11.1342 45.0792C10.3189 44.6036 9.45223 44.2223 8.55083 43.9425C8.22029 43.8192 7.868 43.7649 7.51567 43.7829C7.16333 43.801 6.81843 43.891 6.50222 44.0474C6.18601 44.2039 5.9052 44.4234 5.67709 44.6926C5.44898 44.9617 5.27842 45.2747 5.17591 45.6123C5.0734 45.9498 5.04112 46.3048 5.08106 46.6553C5.121 47.0059 5.23232 47.3445 5.40814 47.6504C5.58397 47.9562 5.82057 48.2228 6.10338 48.4337C6.38619 48.6446 6.70919 48.7954 7.05249 48.8767C7.56439 49.0403 8.05788 49.2568 8.52499 49.5225C10.1316 50.4624 11.9595 50.9577 13.8208 50.9577C15.6822 50.9577 17.51 50.4624 19.1167 49.5225C20.1269 48.9568 21.2655 48.6598 22.4233 48.6598C23.5812 48.6598 24.7197 48.9568 25.73 49.5225C27.3505 50.4491 29.1849 50.9366 31.0517 50.9366C32.9184 50.9366 34.7528 50.4491 36.3733 49.5225C37.3836 48.9568 38.5221 48.6598 39.68 48.6598C40.8379 48.6598 41.9764 48.9568 42.9867 49.5225C44.6238 50.4582 46.4744 50.9564 48.36 50.9692C50.1795 50.9503 51.9619 50.4512 53.5267 49.5225C53.9938 49.2568 54.4873 49.0403 54.9992 48.8767C55.3248 48.7783 55.6279 48.6167 55.8912 48.4012C56.1544 48.1857 56.3726 47.9204 56.5334 47.6206C56.6941 47.3207 56.7942 46.9921 56.8279 46.6536C56.8616 46.3151 56.8284 45.9732 56.73 45.6475C56.6316 45.3218 56.47 45.0187 56.2545 44.7555C56.039 44.4923 55.7737 44.274 55.4739 44.1133C55.174 43.9526 54.8454 43.8525 54.5069 43.8188C54.1684 43.785 53.8265 43.8183 53.5008 43.9167V43.9425Z" fill="#A6D6F6"/>
</svg>
