<svg width="62" height="62" viewBox="0 0 62 62" fill="none" xmlns="http://www.w3.org/2000/svg">
<path d="M7.4401 43.6066C5.98878 45.0598 5.17358 47.0296 5.17358 49.0833C5.17358 51.1371 5.98878 53.1069 7.4401 54.56C8.89323 56.0113 10.863 56.8265 12.9168 56.8265C14.9705 56.8265 16.9403 56.0113 18.3934 54.56C19.7624 53.0908 20.5077 51.1477 20.4722 49.1399C20.4368 47.1321 19.6235 45.2165 18.2035 43.7966C16.7836 42.3766 14.8679 41.5633 12.8602 41.5278C10.8524 41.4924 8.90924 42.2377 7.4401 43.6066ZM14.7509 50.9175C14.2645 51.4039 13.6047 51.6772 12.9168 51.6772C12.2288 51.6772 11.569 51.4039 11.0826 50.9175C10.5961 50.431 10.3229 49.7713 10.3229 49.0833C10.3229 48.3954 10.5961 47.7356 11.0826 47.2491C11.3228 47.007 11.6085 46.8148 11.9233 46.6837C12.2381 46.5525 12.5757 46.485 12.9168 46.485C13.2578 46.485 13.5955 46.5525 13.9103 46.6837C14.2251 46.8148 14.5108 47.007 14.7509 47.2491C14.9931 47.4893 15.1852 47.775 15.3164 48.0898C15.4476 48.4046 15.5151 48.7423 15.5151 49.0833C15.5151 49.4243 15.4476 49.762 15.3164 50.0768C15.1852 50.3916 14.9931 50.6773 14.7509 50.9175ZM12.9168 31C12.2316 31 11.5745 31.2722 11.0901 31.7566C10.6056 32.2411 10.3334 32.8982 10.3334 33.5833C10.3334 34.2685 10.6056 34.9255 11.0901 35.41C11.5745 35.8945 12.2316 36.1666 12.9168 36.1666C16.3425 36.1666 19.6279 37.5275 22.0502 39.9499C24.4726 42.3722 25.8334 45.6576 25.8334 49.0833C25.8334 49.7685 26.1056 50.4255 26.5901 50.91C27.0745 51.3945 27.7316 51.6666 28.4168 51.6666C29.1019 51.6666 29.759 51.3945 30.2435 50.91C30.7279 50.4255 31.0001 49.7685 31.0001 49.0833C31.0001 44.2873 29.0949 39.6878 25.7036 36.2965C22.3123 32.9052 17.7128 31 12.9168 31ZM12.9168 20.6666C12.2316 20.6666 11.5745 20.9388 11.0901 21.4233C10.6056 21.9078 10.3334 22.5648 10.3334 23.25C10.3334 23.9351 10.6056 24.5922 11.0901 25.0767C11.5745 25.5611 12.2316 25.8333 12.9168 25.8333C19.083 25.8333 24.9968 28.2829 29.357 32.6431C33.7172 37.0033 36.1668 42.917 36.1668 49.0833C36.1668 49.7685 36.4389 50.4255 36.9234 50.91C37.4079 51.3945 38.065 51.6666 38.7501 51.6666C39.4352 51.6666 40.0923 51.3945 40.5768 50.91C41.0613 50.4255 41.3334 49.7685 41.3334 49.0833C41.3134 41.5503 38.3246 34.3288 33.0151 28.985C27.6713 23.6755 20.4498 20.6867 12.9168 20.6666ZM40.3259 21.6741C33.0378 14.4345 23.1895 10.3596 12.9168 10.3333C12.2316 10.3333 11.5745 10.6055 11.0901 11.09C10.6056 11.5744 10.3334 12.2315 10.3334 12.9166C10.3334 13.6018 10.6056 14.2589 11.0901 14.7433C11.5745 15.2278 12.2316 15.5 12.9168 15.5C21.8236 15.5 30.3657 19.0382 36.6638 25.3363C42.9619 31.6344 46.5001 40.1765 46.5001 49.0833C46.5001 49.7685 46.7723 50.4255 47.2567 50.91C47.7412 51.3945 48.3983 51.6666 49.0834 51.6666C49.7686 51.6666 50.4257 51.3945 50.9101 50.91C51.3946 50.4255 51.6668 49.7685 51.6668 49.0833C51.6405 38.8106 47.5656 28.9623 40.3259 21.6741Z" fill="#A6D6F6"/>
</svg>
